<svg width="512" height="512" viewBox="0 0 512 512" fill="none" xmlns="http://www.w3.org/2000/svg">
<g clip-path="url(#clip0_7_717)">
<path d="M256.18 431.778C251.998 431.778 248.184 429.068 246.775 425.142C245.385 421.27 246.574 416.82 249.711 414.155C252.984 411.374 257.808 411.013 261.456 413.282C264.952 415.456 266.797 419.687 265.99 423.728C265.069 428.342 260.888 431.778 256.18 431.778Z" fill="#17C8DA"/>
<path d="M425.939 186.502C423.379 186.502 420.821 185.525 418.868 183.573L402.473 167.178C398.568 163.273 398.568 156.941 402.473 153.035C406.379 149.13 412.709 149.13 416.616 153.035L425.939 162.359L444.51 143.787C448.416 139.883 454.746 139.883 458.653 143.787C462.558 147.692 462.558 154.024 458.653 157.93L433.01 183.573C431.058 185.526 428.499 186.502 425.939 186.502Z" fill="#E68D3B"/>
<path d="M502 238.862H477.628C485.289 229.537 493.377 218.881 498.978 207.968C507.219 195.068 512 179.753 512 163.342C512 117.508 474.711 80.2188 428.877 80.2188C400.929 80.2188 376.158 94.0837 361.081 115.296C336.95 100.573 327.199 98.8377 321.943 98.8377C300.581 98.8377 280.97 107.622 266.723 123.572C262.549 128.245 258.961 133.375 255.999 138.852C253.038 133.376 249.449 128.246 245.275 123.572C231.028 107.622 211.418 98.8377 190.055 98.8377C184.668 98.8377 174.561 100.66 149.091 116.417C140.765 121.568 130.422 121.568 122.094 116.417C96.627 100.661 86.52 98.8387 81.133 98.8387C59.771 98.8387 40.16 107.623 25.913 123.573C12.549 138.535 5.189 158.179 5.189 178.887C5.189 202.444 19.539 221.073 34.35 238.863H10C4.478 238.863 0 243.34 0 248.863V421.778C0 427.301 4.478 431.778 10 431.778H210.794C216.316 431.778 220.794 427.301 220.794 421.778C220.794 416.255 216.316 411.778 210.794 411.778H20V258.862H51.171C58.036 267.695 61.001 274.658 61.001 289.192V299.454C61.001 332.523 84.643 360.467 117.216 365.898C120.116 366.38 123.081 365.564 125.324 363.665C127.566 361.765 128.86 358.974 128.86 356.035V273.237C128.86 269.432 131.793 266.256 135.398 266.157C137.263 266.116 138.977 266.783 140.29 268.061C141.604 269.34 142.329 271.055 142.329 272.889V356.035C142.329 358.974 143.623 361.765 145.865 363.665C147.685 365.207 149.979 366.035 152.329 366.035C152.876 366.035 153.426 365.99 153.974 365.899C186.547 360.468 210.189 332.524 210.189 299.455V289.193C210.189 274.659 213.154 267.696 220.019 258.863H291.981C298.846 267.696 301.811 274.659 301.811 289.193V299.455C301.811 332.524 325.453 360.468 358.026 365.899C358.574 365.99 359.124 366.035 359.671 366.035C362.021 366.035 364.316 365.206 366.135 363.665C368.378 361.765 369.671 358.974 369.671 356.035V273.237C369.671 269.432 372.604 266.256 376.209 266.157C378.041 266.121 379.787 266.782 381.101 268.061C382.415 269.34 383.14 271.055 383.14 272.889V356.035C383.14 358.974 384.433 361.765 386.676 363.665C388.92 365.565 391.887 366.381 394.784 365.898C427.357 360.467 450.999 332.523 450.999 299.454V289.192C450.999 274.658 453.964 267.695 460.829 258.862H492V411.777H301.206C295.684 411.777 291.206 416.254 291.206 421.777C291.206 427.3 295.684 431.777 301.206 431.777H502C507.522 431.777 512 427.3 512 421.777V248.862C512 243.339 507.522 238.862 502 238.862ZM428.877 100.22C463.684 100.22 492 128.537 492 163.343C492 198.149 463.684 226.466 428.877 226.466C394.07 226.466 365.754 198.149 365.754 163.343C365.754 128.537 394.07 100.22 428.877 100.22ZM190.188 289.192V299.454C190.188 318.538 178.996 335.194 162.329 342.662V272.888C162.329 265.608 159.455 258.803 154.236 253.725C149.2 248.825 142.611 246.153 135.608 246.153C135.357 246.153 135.103 246.156 134.85 246.164C120.519 246.556 108.86 258.701 108.86 273.236V342.662C92.193 335.194 81.001 318.538 81.001 299.454V289.192C81.001 262.604 72.066 252.214 58.541 236.488C56.707 234.355 54.751 232.082 52.679 229.606C36.075 209.767 25.19 195.519 25.19 178.886C25.19 163.099 30.745 148.187 40.83 136.895C51.231 125.25 65.545 118.838 81.134 118.838C81.801 118.838 87.995 119.208 108.273 131.41L111.11 134.674C120.891 145.93 133.761 153.566 148.329 156.756C153.25 157.833 158.207 158.369 163.139 158.369C172.804 158.369 182.369 156.312 191.368 152.246C196.401 149.972 198.638 144.049 196.364 139.016C194.09 133.982 188.166 131.747 183.134 134.02C173.074 138.565 162.218 139.508 152.103 137.183C154.682 136.175 157.197 134.923 159.616 133.426C182.533 119.248 189.355 118.839 190.057 118.839C205.646 118.839 219.959 125.252 230.361 136.896C240.446 148.188 246.001 163.1 246.001 178.887C246.001 195.519 235.116 209.768 218.512 229.607C216.44 232.083 214.484 234.356 212.65 236.489C199.123 252.215 190.188 262.604 190.188 289.192ZM256 212.755C261.319 221.928 268.189 230.488 275.161 238.863H236.839C243.811 230.488 250.681 221.927 256 212.755ZM430.999 289.192V299.454C430.999 318.538 419.807 335.194 403.14 342.662V272.888C403.14 265.608 400.266 258.803 395.047 253.725C389.83 248.649 382.944 245.948 375.661 246.164C361.33 246.556 349.671 258.701 349.671 273.236V342.662C333.004 335.194 321.812 318.538 321.812 299.454V289.192C321.812 262.604 312.877 252.214 299.352 236.488C297.518 234.355 295.563 232.082 293.49 229.606C276.885 209.768 266 195.519 266 178.887C266 163.1 271.555 148.188 281.64 136.896C292.041 125.251 306.355 118.839 321.944 118.839C322.637 118.839 329.299 119.239 351.528 132.898C347.802 142.33 345.755 152.602 345.755 163.343C345.755 209.177 383.044 246.466 428.878 246.466C434.978 246.466 440.927 245.805 446.657 244.552C437.019 256.457 430.999 267.368 430.999 289.192Z" fill="#219BDA"/>
</g>
<defs>
<clipPath id="clip0_7_717">
<rect width="512" height="512" fill="white"/>
</clipPath>
</defs>
</svg>
