<svg width="512" height="512" viewBox="0 0 512 512" fill="none" xmlns="http://www.w3.org/2000/svg">
<path d="M466.068 266.613C471.59 266.613 476.068 262.136 476.068 256.613V234.792C497.195 228.11 512 208.307 512 185.704V105.344C512 99.8208 507.522 95.3438 502 95.3438H10C4.478 95.3438 0 99.8208 0 105.344V185.704C0 208.384 14.781 228.124 35.932 234.794V256.612C35.932 262.135 40.41 266.612 45.932 266.612H51.334V279.813C23.014 279.892 0 302.955 0 331.292V406.652C0 412.175 4.478 416.652 10 416.652H210.794C216.316 416.652 220.794 412.175 220.794 406.652C220.794 401.129 216.316 396.652 210.794 396.652H20V331.292C20 313.983 34.043 299.892 51.334 299.814V304.775C51.334 328.179 70.374 347.219 93.778 347.219C106.778 347.219 118.43 341.345 126.222 332.112C134.014 341.345 145.667 347.219 158.666 347.219C171.665 347.219 183.318 341.345 191.11 332.112C198.902 341.345 210.555 347.219 223.554 347.219C236.553 347.219 248.206 341.345 255.998 332.112C263.79 341.345 275.443 347.219 288.442 347.219C301.441 347.219 313.094 341.345 320.886 332.112C328.678 341.345 340.331 347.219 353.33 347.219C366.329 347.219 377.982 341.345 385.774 332.112C393.566 341.345 405.219 347.219 418.218 347.219C441.622 347.219 460.662 328.178 460.662 304.775V299.814C477.957 299.892 492 313.983 492 331.292V396.652H301.206C295.684 396.652 291.206 401.129 291.206 406.652C291.206 412.175 295.684 416.652 301.206 416.652H502C507.522 416.652 512 412.175 512 406.652V331.292C512 302.954 488.986 279.892 460.666 279.813V266.612H466.068V266.613ZM340.828 246.613V206.423C340.828 193.294 351.51 182.613 364.639 182.613C377.768 182.613 388.449 193.294 388.449 206.423V246.613H340.828ZM55.932 246.613V206.423C55.932 193.294 66.613 182.613 79.742 182.613C92.871 182.613 103.553 193.294 103.553 206.423V246.613H55.932ZM123.552 246.613V206.423C123.552 193.294 134.233 182.613 147.362 182.613C160.491 182.613 171.173 193.294 171.173 206.423V246.613H123.552ZM191.261 246.613V209.982C191.261 194.89 203.538 182.612 218.63 182.612C233.722 182.612 246 194.89 246 209.982V246.613H191.261ZM266 209.982C266 194.89 278.278 182.612 293.37 182.612C308.462 182.612 320.739 194.89 320.739 209.982V246.613H266V209.982ZM408.448 206.422C408.448 193.293 419.13 182.612 432.259 182.612C445.388 182.612 456.069 193.293 456.069 206.422V246.612H408.449V206.422H408.448ZM20 185.704V115.344H492V185.704C492 197.257 485.68 207.612 476.068 213.087V206.422C476.068 182.265 456.415 162.612 432.258 162.612C418.66 162.612 406.489 168.839 398.447 178.591C390.405 168.839 378.235 162.612 364.637 162.612C350.481 162.612 337.872 169.36 329.858 179.809C321.162 169.311 308.033 162.612 293.368 162.612C278.199 162.612 264.674 169.779 255.998 180.904C247.322 169.779 233.797 162.612 218.628 162.612C203.963 162.612 190.834 169.311 182.138 179.809C174.124 169.361 161.514 162.612 147.359 162.612C133.762 162.612 121.591 168.839 113.549 178.591C105.507 168.839 93.336 162.612 79.738 162.612C55.582 162.612 35.928 182.265 35.928 206.422V213.097C26.311 207.635 20 197.299 20 185.704ZM93.778 327.22C81.402 327.22 71.334 317.152 71.334 304.776V266.613H116.223V304.776C116.223 317.151 106.154 327.22 93.778 327.22ZM158.667 327.22C146.291 327.22 136.223 317.152 136.223 304.776V266.613H181.112V304.776C181.111 317.151 171.043 327.22 158.667 327.22ZM223.556 327.22C211.18 327.22 201.112 317.152 201.112 304.776V266.613H246V304.776C246 317.151 235.932 327.22 223.556 327.22ZM288.444 327.22C276.068 327.22 266 317.152 266 304.776V266.613H310.889V304.776C310.889 317.151 300.82 327.22 288.444 327.22ZM353.333 327.22C340.957 327.22 330.889 317.152 330.889 304.776V266.613H375.778V304.776C375.777 317.151 365.709 327.22 353.333 327.22ZM440.666 304.775C440.666 317.151 430.598 327.219 418.222 327.219C405.846 327.219 395.778 317.151 395.778 304.775V266.612H440.667V304.775H440.666Z" fill="#219BDA"/>
<path d="M256.18 416.661C252.061 416.661 248.277 414.024 246.83 410.175C245.345 406.224 246.558 401.601 249.836 398.923C253.071 396.281 257.733 395.937 261.317 398.081C264.897 400.223 266.822 404.51 265.991 408.61C265.055 413.221 260.896 416.661 256.18 416.661Z" fill="#E68D3B"/>
</svg>
