<svg width="1969" height="351" viewBox="0 0 1969 351" fill="none" xmlns="http://www.w3.org/2000/svg">
<path fill-rule="evenodd" clip-rule="evenodd" d="M363.063 269.787L343.548 259.953L333.714 240.439C332.855 238.734 331.108 237.657 329.199 237.657C327.289 237.657 325.542 238.733 324.683 240.439L314.849 259.953L295.334 269.787C293.629 270.646 292.553 272.393 292.553 274.302C292.553 276.212 293.629 277.959 295.334 278.818L314.849 288.651L324.683 308.166C325.542 309.871 327.289 310.948 329.199 310.948C331.108 310.948 332.855 309.872 333.714 308.166L343.548 288.651L363.063 278.818C364.768 277.959 365.844 276.212 365.844 274.302C365.843 272.392 364.768 270.646 363.063 269.787ZM335.267 282.612C335.755 281.644 336.54 280.859 337.507 280.371L349.55 274.302L337.507 268.234C336.54 267.746 335.755 266.961 335.267 265.993L329.199 253.95L323.13 265.993C322.643 266.961 321.857 267.746 320.89 268.234L308.847 274.302L320.89 280.371C321.858 280.859 322.643 281.644 323.13 282.612L329.199 294.655L335.267 282.612Z" fill="#E68D3B"/>
<path d="M350.091 108.289C370.97 84.0267 377.996 64.3142 370.381 51.1164C362.429 37.416 340.521 33.8368 306.922 40.7033L313.369 49.7666C338.782 45.2032 356.584 47.4918 361.627 56.1817C366.774 65.1013 359.732 81.6276 342.293 101.848L350.091 108.289Z" fill="#17C8DA"/>
<path d="M71.0911 170.32C37.9569 202.386 24.8971 228.888 34.2998 245.181C38.1577 251.865 44.5677 256.394 53.3516 258.64C57.6933 259.75 62.646 260.304 68.2067 260.304C75.0306 260.304 82.7723 259.464 91.4031 257.798L101.353 255.607C117.31 251.69 135.887 245.329 157.006 236.535C188.833 223.281 220.124 206.933 236.262 197.625L231.844 188.5C216.224 197.56 184.973 213.934 153.119 227.198C133.115 235.529 115.389 241.635 100.244 245.456L90.2895 247.71C75.8517 250.58 64.2514 250.989 55.8568 248.841C49.7255 247.273 45.5391 244.423 43.0591 240.125C36.6325 228.989 49.2994 206.01 76.2467 179.428L71.0911 170.32Z" fill="#17C8DA"/>
<path fill-rule="evenodd" clip-rule="evenodd" d="M372.928 161.338C372.927 140.476 364.147 121.627 350.091 108.289L342.293 101.848C337.418 98.3532 332.097 95.4422 326.434 93.2186C325.222 76.6273 320.666 61.8089 313.369 49.7666L306.922 40.7033C300.574 33.0829 292.863 27.0715 284.002 23.0764C257.261 11.0204 224.036 18.8336 190.112 45.0616C167.042 27.1971 144.761 17.9526 123.839 17.5763C106.315 17.2585 90.7842 23.2829 78.5519 35.0696L64.4659 7.09895C63.6065 5.39317 61.8595 4.31641 59.9494 4.31641C58.0392 4.31641 56.2923 5.39245 55.4329 7.09895L39.0084 39.7139L6.39273 56.1398C4.68694 56.9992 3.6109 58.7462 3.6109 60.6556C3.6109 62.565 4.68694 64.3127 6.39345 65.1714L39.0084 81.5966L53.748 110.864C55.1267 131.068 61.0363 151.214 71.0911 170.32L76.2467 179.428C79.4749 184.749 83.0266 189.973 86.9032 195.077C87.5012 213.858 88.6429 231.512 90.2895 247.71L100.244 245.456C98.6768 229.843 97.5394 212.388 96.961 193.142C96.9292 192.074 96.5594 191.045 95.9066 190.2C73.6419 161.409 66.2468 134.027 64.2189 114.629L64.2556 114.571C64.3296 114.454 64.4034 114.338 64.4666 114.213L80.8918 81.5973L113.507 65.1721C115.213 64.3127 116.289 62.5658 116.289 60.6563C116.289 58.7469 115.213 56.9992 113.507 56.1406L85.773 42.1722C96.0308 32.412 109 27.4189 123.658 27.6875C142.961 28.0349 164.843 37.6319 186.938 55.4415C186.969 55.4664 187.002 55.4869 187.035 55.5074C187.062 55.5236 187.088 55.5399 187.113 55.5585L187.105 55.5693C207.494 70.6491 229.138 78.8241 253.274 80.561L254 70.4743C233.988 69.0343 215.814 62.7333 198.634 51.2933C228.607 28.8762 257.266 22.1145 279.846 32.2957C299.752 41.2709 312.957 62.5672 315.979 90.0005C310.767 88.8176 305.346 88.1901 299.781 88.1901C259.436 88.1901 226.613 121.004 226.613 161.337C226.613 170.931 228.473 180.098 231.844 188.5L236.262 197.625C245.898 214.425 262.006 227.057 281.16 232.101C275.373 305.368 261.141 339.529 249.407 340.835C244.703 341.354 227.389 336.543 201.958 252.669C200.38 247.388 195.619 243.839 190.111 243.839C184.591 243.839 179.821 247.388 178.25 252.649C152.691 336.937 135.358 341.453 130.658 340.821C119.7 339.364 107.804 310.06 101.353 255.607L91.4031 257.798C93.3616 274.197 95.8719 288.9 98.8921 301.514C106.429 332.989 116.383 349.126 129.327 350.847C130.086 350.948 130.842 350.998 131.598 350.998C140.715 350.998 149.6 343.633 158.682 328.578C168.175 312.84 178.015 288.281 187.936 255.565C188.237 254.556 189.051 253.954 190.112 253.954C191.161 253.954 191.967 254.556 192.275 255.585C202.135 288.104 211.923 312.576 221.367 328.319C231.134 344.601 240.673 351.979 250.527 350.886C261.94 349.616 271.008 337.219 278.248 312.987C284.121 293.329 288.564 266.103 291.156 233.995C293.986 234.328 296.863 234.506 299.781 234.506C340.115 234.506 372.928 201.683 372.928 161.338ZM45.048 73.3154L19.9097 60.6556L45.0487 47.9951C46.0164 47.5077 46.8029 46.7219 47.2903 45.7535L59.9501 20.6152L72.6099 45.7535C73.0973 46.7219 73.8838 47.5077 74.8515 47.9951L99.9905 60.6556L74.8522 73.3154C73.8838 73.8028 73.0981 74.5886 72.6099 75.557L59.9501 100.696L47.2903 75.557C46.8021 74.5886 46.0164 73.8028 45.048 73.3154ZM299.78 224.391C265.012 224.391 236.726 196.105 236.726 161.336C236.726 126.58 265.012 98.3034 299.78 98.3034C334.537 98.3034 362.814 126.58 362.814 161.336C362.814 196.106 334.537 224.391 299.78 224.391Z" fill="#219BDA"/>
<path fill-rule="evenodd" clip-rule="evenodd" d="M340.09 144.632H316.485V121.008C316.485 118.215 314.221 115.951 311.429 115.951H288.132C285.339 115.951 283.075 118.215 283.075 121.008V144.632H259.451C256.658 144.632 254.394 146.896 254.394 149.688V172.986C254.394 175.779 256.658 178.043 259.451 178.043H283.075V201.666C283.075 204.459 285.339 206.723 288.132 206.723H311.429C314.221 206.723 316.485 204.459 316.485 201.666V178.043H340.09C342.882 178.043 345.146 175.779 345.146 172.986V149.688C345.146 146.896 342.882 144.632 340.09 144.632ZM311.429 167.929H335.033V154.745H311.429C308.636 154.745 306.372 152.481 306.372 149.688V126.065H293.188V149.688C293.188 152.481 290.924 154.745 288.131 154.745H264.507V167.929H288.131C290.924 167.929 293.188 170.193 293.188 172.986V196.61H306.372V172.986C306.372 170.193 308.636 167.929 311.429 167.929Z" fill="#17C8DA"/>
<path fill-rule="evenodd" clip-rule="evenodd" d="M363.063 269.788L343.548 259.955L333.715 240.44C332.855 238.735 331.108 237.659 329.199 237.659C327.289 237.659 325.542 238.735 324.683 240.44L314.849 259.955L295.334 269.788C293.629 270.648 292.553 272.395 292.553 274.304C292.553 276.214 293.629 277.96 295.334 278.82L314.849 288.653L324.683 308.168C325.542 309.873 327.289 310.949 329.199 310.949C331.108 310.949 332.855 309.873 333.715 308.168L343.548 288.653L363.063 278.82C364.768 277.96 365.844 276.213 365.844 274.304C365.843 272.394 364.768 270.648 363.063 269.788ZM335.267 282.613C335.755 281.646 336.54 280.861 337.507 280.372L349.55 274.304L337.507 268.236C336.54 267.747 335.755 266.962 335.267 265.995L329.199 253.952L323.13 265.995C322.643 266.962 321.857 267.747 320.89 268.236L308.847 274.304L320.89 280.372C321.858 280.861 322.643 281.646 323.13 282.613L329.199 294.656L335.267 282.613Z" fill="#E68D3B"/>
<path fill-rule="evenodd" clip-rule="evenodd" d="M113.943 51.9211L82.4074 36.0308L66.516 4.49538C65.1272 1.74003 62.3042 0 59.2185 0C56.1329 0 53.3099 1.73886 51.9211 4.49538L36.0297 36.0308L4.49424 51.9211C1.73889 53.3099 0 56.1329 0 59.2185C0 62.3053 1.73772 65.1272 4.49424 66.516L36.0297 82.4062L51.9211 113.942C53.3099 116.697 56.1329 118.437 59.2185 118.437C62.3042 118.437 65.1272 116.698 66.516 113.942L82.4074 82.4062L113.943 66.516C116.698 65.1272 118.437 62.3042 118.437 59.2185C118.436 56.1318 116.698 53.3099 113.943 51.9211ZM69.0251 72.6464C69.8128 71.0825 71.0825 69.814 72.6452 69.0251L92.1066 59.2185L72.6452 49.412C71.0814 48.6231 69.8128 47.3545 69.0251 45.7907L59.2185 26.3293L49.412 45.7907C48.6242 47.3545 47.3545 48.6231 45.7919 49.412L26.3305 59.2185L45.7919 69.0251C47.3557 69.814 48.6242 71.0825 49.412 72.6464L59.2185 92.1077L69.0251 72.6464Z" fill="#E68D3B"/>
<path d="M483.25 181.5C481.417 181.5 479.917 180.917 478.75 179.75C477.583 178.583 477 177.083 477 175.25V12.75C477 10.9167 477.583 9.41667 478.75 8.25C479.917 7.08333 481.417 6.5 483.25 6.5H553.25C567.083 6.5 579.083 8.66667 589.25 13C599.583 17.1667 607.583 23.5 613.25 32C619.083 40.5 622 51.25 622 64.25C622 77.0833 619.083 87.6667 613.25 96C607.583 104.333 599.583 110.5 589.25 114.5C579.083 118.5 567.083 120.5 553.25 120.5H523.5V175.25C523.5 177.083 522.833 178.583 521.5 179.75C520.333 180.917 518.833 181.5 517 181.5H483.25ZM522.75 86H552C559.167 86 564.833 84.1667 569 80.5C573.333 76.8333 575.5 71.25 575.5 63.75C575.5 57.4167 573.667 52.0833 570 47.75C566.333 43.4167 560.333 41.25 552 41.25H522.75V86Z" fill="#219BDA"/>
<path d="M701.73 184C682.064 184 666.397 178.667 654.73 168C643.064 157.333 636.98 141.5 636.48 120.5C636.48 119.333 636.48 117.833 636.48 116C636.48 114.167 636.48 112.75 636.48 111.75C636.98 98.5833 639.897 87.3333 645.23 78C650.73 68.5 658.23 61.3333 667.73 56.5C677.397 51.5 688.647 49 701.48 49C716.147 49 728.23 51.9167 737.73 57.75C747.397 63.5833 754.647 71.5 759.48 81.5C764.314 91.5 766.73 102.917 766.73 115.75V121.75C766.73 123.583 766.064 125.083 764.73 126.25C763.564 127.417 762.147 128 760.48 128H680.48C680.48 128.167 680.48 128.417 680.48 128.75C680.48 129.083 680.48 129.417 680.48 129.75C680.647 134.583 681.48 139 682.98 143C684.48 147 686.814 150.167 689.98 152.5C693.147 154.833 696.98 156 701.48 156C704.814 156 707.564 155.5 709.73 154.5C712.064 153.333 713.98 152.083 715.48 150.75C716.98 149.25 718.147 148 718.98 147C720.48 145.333 721.647 144.333 722.48 144C723.48 143.5 724.98 143.25 726.98 143.25H757.98C759.647 143.25 760.98 143.75 761.98 144.75C763.147 145.583 763.647 146.833 763.48 148.5C763.314 151.333 761.897 154.75 759.23 158.75C756.564 162.75 752.647 166.75 747.48 170.75C742.48 174.583 736.147 177.75 728.48 180.25C720.814 182.75 711.897 184 701.73 184ZM680.48 103.25H722.73V102.75C722.73 97.4167 721.897 92.75 720.23 88.75C718.73 84.75 716.314 81.6667 712.98 79.5C709.814 77.3333 705.98 76.25 701.48 76.25C696.98 76.25 693.147 77.3333 689.98 79.5C686.98 81.6667 684.647 84.75 682.98 88.75C681.314 92.75 680.48 97.4167 680.48 102.75V103.25Z" fill="#219BDA"/>
<path d="M829.168 184C820.168 184 812.085 182.333 804.918 179C797.918 175.5 792.335 170.833 788.168 165C784.001 159.167 781.918 152.583 781.918 145.25C781.918 133.417 786.751 124.083 796.418 117.25C806.085 110.25 818.918 105.5 834.918 103L866.168 98.25V94.75C866.168 88.75 864.918 84.1667 862.418 81C859.918 77.8333 855.335 76.25 848.668 76.25C844.001 76.25 840.168 77.1667 837.168 79C834.335 80.8333 832.085 83.3333 830.418 86.5C828.918 88.6667 826.835 89.75 824.168 89.75H796.168C794.335 89.75 792.918 89.25 791.918 88.25C790.918 87.0833 790.501 85.75 790.668 84.25C790.668 81.25 791.751 77.8333 793.918 74C796.251 70 799.751 66.0833 804.418 62.25C809.085 58.4167 815.085 55.25 822.418 52.75C829.751 50.25 838.585 49 848.918 49C859.751 49 869.001 50.25 876.668 52.75C884.335 55.25 890.501 58.75 895.168 63.25C900.001 67.75 903.585 73.0833 905.918 79.25C908.251 85.25 909.418 91.9167 909.418 99.25V175.25C909.418 177.083 908.751 178.583 907.418 179.75C906.251 180.917 904.835 181.5 903.168 181.5H874.168C872.335 181.5 870.835 180.917 869.668 179.75C868.501 178.583 867.918 177.083 867.918 175.25V166.5C865.751 169.667 862.835 172.583 859.168 175.25C855.501 177.917 851.168 180 846.168 181.5C841.335 183.167 835.668 184 829.168 184ZM840.918 155.5C845.751 155.5 850.085 154.5 853.918 152.5C857.918 150.333 861.001 147.083 863.168 142.75C865.501 138.25 866.668 132.667 866.668 126V122.5L845.418 126.25C837.585 127.583 831.835 129.667 828.168 132.5C824.668 135.167 822.918 138.333 822.918 142C822.918 144.833 823.751 147.25 825.418 149.25C827.085 151.25 829.251 152.833 831.918 154C834.585 155 837.585 155.5 840.918 155.5Z" fill="#219BDA"/>
<path d="M943.879 181.5C942.046 181.5 940.546 180.917 939.379 179.75C938.212 178.583 937.629 177.083 937.629 175.25V57.75C937.629 56.0833 938.212 54.6667 939.379 53.5C940.546 52.1667 942.046 51.5 943.879 51.5H972.629C974.462 51.5 975.962 52.1667 977.129 53.5C978.296 54.6667 978.879 56.0833 978.879 57.75V67.75C983.379 62.5833 988.712 58.5833 994.879 55.75C1001.21 52.9167 1008.3 51.5 1016.13 51.5H1027.13C1028.8 51.5 1030.21 52.0833 1031.38 53.25C1032.71 54.4167 1033.38 55.9167 1033.38 57.75V83.5C1033.38 85.1667 1032.71 86.6667 1031.38 88C1030.21 89.1667 1028.8 89.75 1027.13 89.75H1002.88C996.046 89.75 990.712 91.6667 986.879 95.5C983.212 99.1667 981.379 104.417 981.379 111.25V175.25C981.379 177.083 980.712 178.583 979.379 179.75C978.212 180.917 976.712 181.5 974.879 181.5H943.879Z" fill="#219BDA"/>
<path d="M1057.4 181.5C1055.57 181.5 1054.07 180.917 1052.9 179.75C1051.74 178.583 1051.15 177.083 1051.15 175.25V10.25C1051.15 8.41666 1051.74 6.91667 1052.9 5.75001C1054.07 4.58334 1055.57 4 1057.4 4H1086.9C1088.74 4 1090.24 4.58334 1091.4 5.75001C1092.57 6.91667 1093.15 8.41666 1093.15 10.25V175.25C1093.15 177.083 1092.57 178.583 1091.4 179.75C1090.24 180.917 1088.74 181.5 1086.9 181.5H1057.4Z" fill="#219BDA"/>
<path d="M1184.91 181.5C1183.08 181.5 1181.58 180.917 1180.41 179.75C1179.24 178.583 1178.66 177.083 1178.66 175.25V12.75C1178.66 10.9167 1179.24 9.41667 1180.41 8.25C1181.58 7.08333 1183.08 6.5 1184.91 6.5H1249.91C1266.24 6.5 1280.16 9.16667 1291.66 14.5C1303.16 19.6667 1311.99 27.3333 1318.16 37.5C1324.33 47.5 1327.66 59.9167 1328.16 74.75C1328.33 82.0833 1328.41 88.5 1328.41 94C1328.41 99.5 1328.33 105.833 1328.16 113C1327.49 128.5 1324.16 141.333 1318.16 151.5C1312.33 161.667 1303.74 169.25 1292.41 174.25C1281.24 179.083 1267.49 181.5 1251.16 181.5H1184.91ZM1223.41 145.5H1249.91C1257.08 145.5 1262.99 144.417 1267.66 142.25C1272.49 139.917 1276.08 136.333 1278.41 131.5C1280.91 126.667 1282.24 120.333 1282.41 112.5C1282.74 107.667 1282.91 103.333 1282.91 99.5C1283.08 95.6667 1283.08 91.8333 1282.91 88C1282.91 84.1667 1282.74 79.9167 1282.41 75.25C1282.08 63.9167 1279.08 55.6667 1273.41 50.5C1267.91 45.1667 1259.66 42.5 1248.66 42.5H1223.41V145.5Z" fill="#219BDA"/>
<path d="M1414.87 184C1395.2 184 1379.53 178.667 1367.87 168C1356.2 157.333 1350.12 141.5 1349.62 120.5C1349.62 119.333 1349.62 117.833 1349.62 116C1349.62 114.167 1349.62 112.75 1349.62 111.75C1350.12 98.5833 1353.03 87.3333 1358.37 78C1363.87 68.5 1371.37 61.3333 1380.87 56.5C1390.53 51.5 1401.78 49 1414.62 49C1429.28 49 1441.37 51.9167 1450.87 57.75C1460.53 63.5833 1467.78 71.5 1472.62 81.5C1477.45 91.5 1479.87 102.917 1479.87 115.75V121.75C1479.87 123.583 1479.2 125.083 1477.87 126.25C1476.7 127.417 1475.28 128 1473.62 128H1393.62C1393.62 128.167 1393.62 128.417 1393.62 128.75C1393.62 129.083 1393.62 129.417 1393.62 129.75C1393.78 134.583 1394.62 139 1396.12 143C1397.62 147 1399.95 150.167 1403.12 152.5C1406.28 154.833 1410.12 156 1414.62 156C1417.95 156 1420.7 155.5 1422.87 154.5C1425.2 153.333 1427.12 152.083 1428.62 150.75C1430.12 149.25 1431.28 148 1432.12 147C1433.62 145.333 1434.78 144.333 1435.62 144C1436.62 143.5 1438.12 143.25 1440.12 143.25H1471.12C1472.78 143.25 1474.12 143.75 1475.12 144.75C1476.28 145.583 1476.78 146.833 1476.62 148.5C1476.45 151.333 1475.03 154.75 1472.37 158.75C1469.7 162.75 1465.78 166.75 1460.62 170.75C1455.62 174.583 1449.28 177.75 1441.62 180.25C1433.95 182.75 1425.03 184 1414.87 184ZM1393.62 103.25H1435.87V102.75C1435.87 97.4167 1435.03 92.75 1433.37 88.75C1431.87 84.75 1429.45 81.6667 1426.12 79.5C1422.95 77.3333 1419.12 76.25 1414.62 76.25C1410.12 76.25 1406.28 77.3333 1403.12 79.5C1400.12 81.6667 1397.78 84.75 1396.12 88.75C1394.45 92.75 1393.62 97.4167 1393.62 102.75V103.25Z" fill="#219BDA"/>
<path d="M1509.55 181.5C1507.72 181.5 1506.22 180.917 1505.05 179.75C1503.89 178.583 1503.3 177.083 1503.3 175.25V57.75C1503.3 55.9167 1503.89 54.4167 1505.05 53.25C1506.22 52.0833 1507.72 51.5 1509.55 51.5H1538.3C1540.14 51.5 1541.64 52.0833 1542.8 53.25C1543.97 54.4167 1544.55 55.9167 1544.55 57.75V67.25C1548.89 62.0833 1554.55 57.75 1561.55 54.25C1568.55 50.75 1576.8 49 1586.3 49C1595.97 49 1604.47 51.1667 1611.8 55.5C1619.3 59.8333 1625.14 66.25 1629.3 74.75C1633.64 83.0833 1635.8 93.3333 1635.8 105.5V175.25C1635.8 177.083 1635.14 178.583 1633.8 179.75C1632.64 180.917 1631.22 181.5 1629.55 181.5H1598.05C1596.39 181.5 1594.89 180.917 1593.55 179.75C1592.39 178.583 1591.8 177.083 1591.8 175.25V107C1591.8 99.1667 1589.89 93.1667 1586.05 89C1582.39 84.6667 1576.89 82.5 1569.55 82.5C1562.72 82.5 1557.22 84.6667 1553.05 89C1549.05 93.1667 1547.05 99.1667 1547.05 107V175.25C1547.05 177.083 1546.39 178.583 1545.05 179.75C1543.89 180.917 1542.47 181.5 1540.8 181.5H1509.55Z" fill="#219BDA"/>
<path d="M1728.98 181.5C1718.32 181.5 1709.07 179.833 1701.23 176.5C1693.57 173 1687.65 167.667 1683.48 160.5C1679.32 153.167 1677.23 143.75 1677.23 132.25V84.25H1657.73C1655.9 84.25 1654.32 83.6667 1652.98 82.5C1651.82 81.3333 1651.23 79.8333 1651.23 78V57.75C1651.23 55.9167 1651.82 54.4167 1652.98 53.25C1654.32 52.0833 1655.9 51.5 1657.73 51.5H1677.23V10.25C1677.23 8.41666 1677.82 6.91667 1678.98 5.75001C1680.32 4.58334 1681.82 4 1683.48 4H1712.48C1714.32 4 1715.82 4.58334 1716.98 5.75001C1718.15 6.91667 1718.73 8.41666 1718.73 10.25V51.5H1749.98C1751.82 51.5 1753.32 52.0833 1754.48 53.25C1755.65 54.4167 1756.23 55.9167 1756.23 57.75V78C1756.23 79.8333 1755.65 81.3333 1754.48 82.5C1753.32 83.6667 1751.82 84.25 1749.98 84.25H1718.73V128.75C1718.73 134.417 1719.82 138.917 1721.98 142.25C1724.15 145.583 1727.82 147.25 1732.98 147.25H1752.23C1754.07 147.25 1755.57 147.833 1756.73 149C1757.9 150.167 1758.48 151.667 1758.48 153.5V175.25C1758.48 177.083 1757.9 178.583 1756.73 179.75C1755.57 180.917 1754.07 181.5 1752.23 181.5H1728.98Z" fill="#219BDA"/>
<path d="M1818.18 184C1809.18 184 1801.1 182.333 1793.93 179C1786.93 175.5 1781.35 170.833 1777.18 165C1773.02 159.167 1770.93 152.583 1770.93 145.25C1770.93 133.417 1775.77 124.083 1785.43 117.25C1795.1 110.25 1807.93 105.5 1823.93 103L1855.18 98.25V94.75C1855.18 88.75 1853.93 84.1667 1851.43 81C1848.93 77.8333 1844.35 76.25 1837.68 76.25C1833.02 76.25 1829.18 77.1667 1826.18 79C1823.35 80.8333 1821.1 83.3333 1819.43 86.5C1817.93 88.6667 1815.85 89.75 1813.18 89.75H1785.18C1783.35 89.75 1781.93 89.25 1780.93 88.25C1779.93 87.0833 1779.52 85.75 1779.68 84.25C1779.68 81.25 1780.77 77.8333 1782.93 74C1785.27 70 1788.77 66.0833 1793.43 62.25C1798.1 58.4167 1804.1 55.25 1811.43 52.75C1818.77 50.25 1827.6 49 1837.93 49C1848.77 49 1858.02 50.25 1865.68 52.75C1873.35 55.25 1879.52 58.75 1884.18 63.25C1889.02 67.75 1892.6 73.0833 1894.93 79.25C1897.27 85.25 1898.43 91.9167 1898.43 99.25V175.25C1898.43 177.083 1897.77 178.583 1896.43 179.75C1895.27 180.917 1893.85 181.5 1892.18 181.5H1863.18C1861.35 181.5 1859.85 180.917 1858.68 179.75C1857.52 178.583 1856.93 177.083 1856.93 175.25V166.5C1854.77 169.667 1851.85 172.583 1848.18 175.25C1844.52 177.917 1840.18 180 1835.18 181.5C1830.35 183.167 1824.68 184 1818.18 184ZM1829.93 155.5C1834.77 155.5 1839.1 154.5 1842.93 152.5C1846.93 150.333 1850.02 147.083 1852.18 142.75C1854.52 138.25 1855.68 132.667 1855.68 126V122.5L1834.43 126.25C1826.6 127.583 1820.85 129.667 1817.18 132.5C1813.68 135.167 1811.93 138.333 1811.93 142C1811.93 144.833 1812.77 147.25 1814.43 149.25C1816.1 151.25 1818.27 152.833 1820.93 154C1823.6 155 1826.6 155.5 1829.93 155.5Z" fill="#219BDA"/>
<path d="M1932.89 181.5C1931.06 181.5 1929.56 180.917 1928.39 179.75C1927.23 178.583 1926.64 177.083 1926.64 175.25V10.25C1926.64 8.41666 1927.23 6.91667 1928.39 5.75001C1929.56 4.58334 1931.06 4 1932.89 4H1962.39C1964.23 4 1965.73 4.58334 1966.89 5.75001C1968.06 6.91667 1968.64 8.41666 1968.64 10.25V175.25C1968.64 177.083 1968.06 178.583 1966.89 179.75C1965.73 180.917 1964.23 181.5 1962.39 181.5H1932.89Z" fill="#219BDA"/>
<path d="M497.693 321.505H481.231L481.142 312.952H495.259C497.678 312.952 499.699 312.614 501.322 311.938C502.944 311.262 504.169 310.277 504.995 308.984C505.85 307.691 506.278 306.118 506.278 304.267C506.278 302.209 505.88 300.534 505.083 299.24C504.316 297.947 503.106 297.007 501.454 296.419C499.802 295.802 497.708 295.493 495.171 295.493H485.169V350.118H473V285.926H495.171C498.829 285.926 502.089 286.279 504.95 286.984C507.841 287.66 510.29 288.718 512.296 290.158C514.302 291.599 515.822 293.406 516.854 295.581C517.916 297.756 518.447 300.343 518.447 303.341C518.447 305.986 517.828 308.426 516.589 310.659C515.379 312.864 513.506 314.657 510.969 316.038C508.461 317.42 505.275 318.213 501.41 318.419L497.693 321.505ZM497.162 350.118H477.647L482.736 340.595H497.162C499.581 340.595 501.572 340.198 503.136 339.405C504.729 338.611 505.909 337.524 506.676 336.142C507.473 334.731 507.871 333.115 507.871 331.293C507.871 329.294 507.517 327.56 506.809 326.09C506.13 324.621 505.039 323.489 503.534 322.695C502.059 321.902 500.112 321.505 497.693 321.505H485.037L485.125 312.952H501.233L504.021 316.259C507.738 316.288 510.762 317.023 513.093 318.463C515.453 319.903 517.193 321.755 518.315 324.018C519.436 326.281 519.996 328.721 519.996 331.337C519.996 335.452 519.096 338.905 517.297 341.697C515.527 344.49 512.931 346.591 509.508 348.002C506.116 349.413 502 350.118 497.162 350.118Z" fill="#162129" fill-opacity="0.6"/>
<path d="M582.748 340.595V350.118H548.497V340.595H582.748ZM552.214 285.926V350.118H540.044V285.926H552.214ZM578.278 312.423V321.725H548.497V312.423H578.278ZM582.615 285.926V295.493H548.497V285.926H582.615Z" fill="#162129" fill-opacity="0.6"/>
<path d="M634.437 333.453C634.437 332.218 634.245 331.116 633.861 330.146C633.507 329.147 632.844 328.251 631.87 327.457C630.926 326.634 629.584 325.84 627.843 325.076C626.132 324.283 623.919 323.46 621.205 322.607C618.196 321.667 615.393 320.609 612.797 319.433C610.201 318.257 607.915 316.89 605.938 315.333C603.991 313.775 602.472 311.982 601.38 309.954C600.288 307.896 599.743 305.516 599.743 302.812C599.743 300.166 600.303 297.756 601.424 295.581C602.575 293.406 604.197 291.54 606.292 289.982C608.387 288.395 610.85 287.175 613.682 286.323C616.544 285.47 619.701 285.044 623.152 285.044C627.932 285.044 632.062 285.911 635.543 287.645C639.054 289.379 641.768 291.731 643.685 294.699C645.603 297.668 646.562 301.004 646.562 304.707H634.437C634.437 302.709 634.009 300.945 633.153 299.417C632.327 297.888 631.059 296.683 629.348 295.802C627.666 294.92 625.542 294.479 622.975 294.479C620.497 294.479 618.432 294.846 616.78 295.581C615.157 296.316 613.933 297.315 613.107 298.579C612.31 299.843 611.912 301.254 611.912 302.812C611.912 303.987 612.192 305.045 612.753 305.986C613.313 306.897 614.154 307.764 615.275 308.587C616.396 309.381 617.783 310.13 619.435 310.836C621.117 311.512 623.064 312.188 625.276 312.864C628.817 313.922 631.914 315.098 634.569 316.391C637.254 317.684 639.481 319.154 641.252 320.8C643.051 322.446 644.393 324.297 645.279 326.355C646.193 328.412 646.65 330.749 646.65 333.365C646.65 336.128 646.105 338.597 645.013 340.772C643.921 342.947 642.358 344.798 640.322 346.327C638.287 347.855 635.838 349.016 632.976 349.81C630.144 350.603 626.973 351 623.462 351C620.335 351 617.237 350.589 614.169 349.766C611.13 348.913 608.372 347.649 605.894 345.974C603.416 344.269 601.439 342.124 599.964 339.537C598.489 336.921 597.751 333.864 597.751 330.367H609.965C609.965 332.395 610.29 334.129 610.939 335.569C611.617 336.98 612.561 338.141 613.771 339.052C615.01 339.934 616.455 340.58 618.107 340.992C619.76 341.403 621.544 341.609 623.462 341.609C625.94 341.609 627.976 341.271 629.569 340.595C631.191 339.89 632.401 338.92 633.198 337.685C634.024 336.451 634.437 335.04 634.437 333.453Z" fill="#162129" fill-opacity="0.6"/>
<path d="M693.206 285.926V350.118H681.081V285.926H693.206ZM713.208 285.926V295.493H661.3V285.926H713.208Z" fill="#162129" fill-opacity="0.6"/>
<path d="M779.944 350.118H766.049L766.137 340.595H779.944C783.691 340.595 786.833 339.772 789.37 338.126C791.907 336.451 793.825 334.055 795.123 330.94C796.421 327.795 797.07 324.033 797.07 319.653V316.347C797.07 312.967 796.701 309.983 795.964 307.397C795.226 304.81 794.134 302.635 792.689 300.872C791.273 299.108 789.517 297.771 787.423 296.86C785.328 295.949 782.924 295.493 780.21 295.493H765.783V285.926H780.21C784.517 285.926 788.441 286.646 791.981 288.086C795.551 289.526 798.633 291.599 801.23 294.303C803.855 296.977 805.861 300.181 807.248 303.914C808.664 307.647 809.372 311.82 809.372 316.435V319.653C809.372 324.238 808.664 328.412 807.248 332.174C805.861 335.907 803.855 339.111 801.23 341.786C798.633 344.46 795.536 346.518 791.937 347.958C788.337 349.398 784.34 350.118 779.944 350.118ZM772.864 285.926V350.118H760.694V285.926H772.864Z" fill="#162129" fill-opacity="0.6"/>
<path d="M871.947 340.595V350.118H837.695V340.595H871.947ZM841.413 285.926V350.118H829.243V285.926H841.413ZM867.477 312.423V321.725H837.695V312.423H867.477ZM871.814 285.926V295.493H837.695V285.926H871.814Z" fill="#162129" fill-opacity="0.6"/>
<path d="M941.691 285.926V350.118H929.477L902.085 305.589V350.118H889.915V285.926H902.085L929.565 330.499V285.926H941.691Z" fill="#162129" fill-opacity="0.6"/>
<path d="M989.928 285.926V350.118H977.802V285.926H989.928ZM1009.93 285.926V295.493H958.022V285.926H1009.93Z" fill="#162129" fill-opacity="0.6"/>
<path d="M1048.65 295.669L1030.29 350.118H1017.41L1041.48 285.926H1049.71L1048.65 295.669ZM1064.01 350.118L1045.55 295.669L1044.45 285.926H1052.72L1076.93 350.118H1064.01ZM1063.17 326.267V335.834H1028.61V326.267H1063.17Z" fill="#162129" fill-opacity="0.6"/>
<path d="M1133.97 340.595V350.118H1101.58V340.595H1133.97ZM1105.25 285.926V350.118H1093.08V285.926H1105.25Z" fill="#162129" fill-opacity="0.6"/>
<path d="M1217.44 333.453C1217.44 332.218 1217.25 331.116 1216.86 330.146C1216.51 329.147 1215.84 328.251 1214.87 327.457C1213.93 326.634 1212.58 325.84 1210.84 325.076C1209.13 324.283 1206.92 323.46 1204.21 322.607C1201.2 321.667 1198.39 320.609 1195.8 319.433C1193.2 318.257 1190.91 316.89 1188.94 315.333C1186.99 313.775 1185.47 311.982 1184.38 309.954C1183.29 307.896 1182.74 305.516 1182.74 302.812C1182.74 300.166 1183.3 297.756 1184.42 295.581C1185.58 293.406 1187.2 291.54 1189.29 289.982C1191.39 288.395 1193.85 287.175 1196.68 286.323C1199.54 285.47 1202.7 285.044 1206.15 285.044C1210.93 285.044 1215.06 285.911 1218.54 287.645C1222.05 289.379 1224.77 291.731 1226.69 294.699C1228.6 297.668 1229.56 301.004 1229.56 304.707H1217.44C1217.44 302.709 1217.01 300.945 1216.15 299.417C1215.33 297.888 1214.06 296.683 1212.35 295.802C1210.67 294.92 1208.54 294.479 1205.98 294.479C1203.5 294.479 1201.43 294.846 1199.78 295.581C1198.16 296.316 1196.93 297.315 1196.11 298.579C1195.31 299.843 1194.91 301.254 1194.91 302.812C1194.91 303.987 1195.19 305.045 1195.75 305.986C1196.31 306.897 1197.15 307.764 1198.28 308.587C1199.4 309.381 1200.78 310.13 1202.44 310.836C1204.12 311.512 1206.06 312.188 1208.28 312.864C1211.82 313.922 1214.91 315.098 1217.57 316.391C1220.25 317.684 1222.48 319.154 1224.25 320.8C1226.05 322.446 1227.39 324.297 1228.28 326.355C1229.19 328.412 1229.65 330.749 1229.65 333.365C1229.65 336.128 1229.1 338.597 1228.01 340.772C1226.92 342.947 1225.36 344.798 1223.32 346.327C1221.29 347.855 1218.84 349.016 1215.98 349.81C1213.14 350.603 1209.97 351 1206.46 351C1203.34 351 1200.24 350.589 1197.17 349.766C1194.13 348.913 1191.37 347.649 1188.89 345.974C1186.42 344.269 1184.44 342.124 1182.96 339.537C1181.49 336.921 1180.75 333.864 1180.75 330.367H1192.97C1192.97 332.395 1193.29 334.129 1193.94 335.569C1194.62 336.98 1195.56 338.141 1196.77 339.052C1198.01 339.934 1199.46 340.58 1201.11 340.992C1202.76 341.403 1204.54 341.609 1206.46 341.609C1208.94 341.609 1210.98 341.271 1212.57 340.595C1214.19 339.89 1215.4 338.92 1216.2 337.685C1217.02 336.451 1217.44 335.04 1217.44 333.453Z" fill="#162129" fill-opacity="0.6"/>
<path d="M1291.25 340.595V350.118H1257V340.595H1291.25ZM1260.72 285.926V350.118H1248.55V285.926H1260.72ZM1286.78 312.423V321.725H1257V312.423H1286.78ZM1291.12 285.926V295.493H1257V285.926H1291.12Z" fill="#162129" fill-opacity="0.6"/>
<path d="M1309.22 285.926H1332.63C1337.53 285.926 1341.73 286.661 1345.24 288.13C1348.75 289.6 1351.45 291.775 1353.34 294.655C1355.23 297.536 1356.17 301.077 1356.17 305.281C1356.17 308.602 1355.58 311.482 1354.4 313.922C1353.22 316.361 1351.55 318.404 1349.4 320.05C1347.28 321.696 1344.77 322.989 1341.88 323.93L1338.07 325.87H1317.41L1317.32 316.303H1332.76C1335.27 316.303 1337.35 315.862 1339 314.98C1340.65 314.098 1341.89 312.878 1342.72 311.321C1343.57 309.763 1344 307.985 1344 305.986C1344 303.84 1343.59 301.989 1342.76 300.431C1341.94 298.844 1340.68 297.624 1339 296.772C1337.32 295.919 1335.2 295.493 1332.63 295.493H1321.39V350.118H1309.22V285.926ZM1345.6 350.118L1330.68 321.373L1343.56 321.329L1358.65 349.501V350.118H1345.6Z" fill="#162129" fill-opacity="0.6"/>
<path d="M1398.13 337.553L1414.19 285.926H1427.69L1404.94 350.118H1395.96L1398.13 337.553ZM1383.3 285.926L1399.28 337.553L1401.58 350.118H1392.5L1369.85 285.926H1383.3Z" fill="#162129" fill-opacity="0.6"/>
<path d="M1456.81 285.926V350.118H1444.64V285.926H1456.81Z" fill="#162129" fill-opacity="0.6"/>
<path d="M1517.17 329H1529.34C1529.01 333.291 1527.82 337.098 1525.75 340.419C1523.69 343.711 1520.81 346.297 1517.12 348.178C1513.44 350.059 1508.97 351 1503.72 351C1499.67 351 1496.03 350.295 1492.78 348.884C1489.57 347.444 1486.81 345.401 1484.51 342.756C1482.24 340.081 1480.5 336.877 1479.29 333.144C1478.08 329.382 1477.47 325.164 1477.47 320.491V315.597C1477.47 310.924 1478.09 306.706 1479.33 302.944C1480.57 299.182 1482.34 295.978 1484.64 293.333C1486.97 290.658 1489.76 288.601 1493.01 287.16C1496.28 285.72 1499.94 285 1503.98 285C1509.23 285 1513.67 285.97 1517.3 287.91C1520.93 289.82 1523.75 292.451 1525.75 295.802C1527.76 299.152 1528.97 303.003 1529.38 307.353H1517.21C1516.98 304.649 1516.39 302.356 1515.44 300.475C1514.53 298.594 1513.14 297.168 1511.28 296.198C1509.45 295.199 1507.02 294.699 1503.98 294.699C1501.62 294.699 1499.54 295.14 1497.74 296.022C1495.97 296.904 1494.5 298.226 1493.32 299.99C1492.14 301.724 1491.25 303.899 1490.66 306.515C1490.07 309.102 1489.78 312.1 1489.78 315.509V320.491C1489.78 323.754 1490.04 326.678 1490.57 329.265C1491.1 331.851 1491.93 334.041 1493.05 335.834C1494.17 337.627 1495.62 338.993 1497.39 339.934C1499.16 340.874 1501.27 341.345 1503.72 341.345C1506.69 341.345 1509.11 340.874 1510.97 339.934C1512.86 338.993 1514.29 337.612 1515.26 335.79C1516.27 333.967 1516.9 331.704 1517.17 329Z" fill="#162129" fill-opacity="0.6"/>
<path d="M1590.98 340.595V350.118H1556.73V340.595H1590.98ZM1560.45 285.926V350.118H1548.28V285.926H1560.45ZM1586.51 312.423V321.725H1556.73V312.423H1586.51ZM1590.85 285.926V295.493H1556.73V285.926H1590.85Z" fill="#162129" fill-opacity="0.6"/>
<path d="M1642.67 333.453C1642.67 332.218 1642.48 331.116 1642.1 330.146C1641.74 329.147 1641.08 328.251 1640.1 327.457C1639.16 326.634 1637.82 325.84 1636.08 325.076C1634.37 324.283 1632.15 323.46 1629.44 322.607C1626.43 321.667 1623.63 320.609 1621.03 319.433C1618.44 318.257 1616.15 316.89 1614.17 315.333C1612.23 313.775 1610.71 311.982 1609.61 309.954C1608.52 307.896 1607.98 305.516 1607.98 302.812C1607.98 300.166 1608.54 297.756 1609.66 295.581C1610.81 293.406 1612.43 291.54 1614.53 289.982C1616.62 288.395 1619.08 287.175 1621.92 286.323C1624.78 285.47 1627.94 285.044 1631.39 285.044C1636.17 285.044 1640.3 285.911 1643.78 287.645C1647.29 289.379 1650 291.731 1651.92 294.699C1653.84 297.668 1654.8 301.004 1654.8 304.707H1642.67C1642.67 302.709 1642.24 300.945 1641.39 299.417C1640.56 297.888 1639.29 296.683 1637.58 295.802C1635.9 294.92 1633.78 294.479 1631.21 294.479C1628.73 294.479 1626.67 294.846 1625.01 295.581C1623.39 296.316 1622.17 297.315 1621.34 298.579C1620.55 299.843 1620.15 301.254 1620.15 302.812C1620.15 303.987 1620.43 305.045 1620.99 305.986C1621.55 306.897 1622.39 307.764 1623.51 308.587C1624.63 309.381 1626.02 310.13 1627.67 310.836C1629.35 311.512 1631.3 312.188 1633.51 312.864C1637.05 313.922 1640.15 315.098 1642.8 316.391C1645.49 317.684 1647.72 319.154 1649.49 320.8C1651.29 322.446 1652.63 324.297 1653.51 326.355C1654.43 328.412 1654.89 330.749 1654.89 333.365C1654.89 336.128 1654.34 338.597 1653.25 340.772C1652.16 342.947 1650.59 344.798 1648.56 346.327C1646.52 347.855 1644.07 349.016 1641.21 349.81C1638.38 350.603 1635.21 351 1631.7 351C1628.57 351 1625.47 350.589 1622.4 349.766C1619.37 348.913 1616.61 347.649 1614.13 345.974C1611.65 344.269 1609.67 342.124 1608.2 339.537C1606.72 336.921 1605.99 333.864 1605.99 330.367H1618.2C1618.2 332.395 1618.52 334.129 1619.17 335.569C1619.85 336.98 1620.8 338.141 1622.01 339.052C1623.24 339.934 1624.69 340.58 1626.34 340.992C1627.99 341.403 1629.78 341.609 1631.7 341.609C1634.17 341.609 1636.21 341.271 1637.8 340.595C1639.43 339.89 1640.64 338.92 1641.43 337.685C1642.26 336.451 1642.67 335.04 1642.67 333.453Z" fill="#162129" fill-opacity="0.6"/>
<path d="M1718.83 285.926V350.118H1706.66V285.926H1718.83Z" fill="#162129" fill-opacity="0.6"/>
<path d="M1793.27 285.926V350.118H1781.05L1753.66 305.589V350.118H1741.49V285.926H1753.66L1781.14 330.499V285.926H1793.27Z" fill="#162129" fill-opacity="0.6"/>
<path d="M1899.04 285.926V350.118H1886.82L1859.43 305.589V350.118H1847.26V285.926H1859.43L1886.91 330.499V285.926H1899.04Z" fill="#162129" fill-opacity="0.6"/>
<path d="M1927.23 285.926L1941.39 315.862L1955.64 285.926H1969L1947.58 326.619V350.118H1935.24V326.619L1913.77 285.926H1927.23Z" fill="#162129" fill-opacity="0.6"/>
</svg>
