<svg width="512" height="512" viewBox="0 0 512 512" fill="none" xmlns="http://www.w3.org/2000/svg">
<g clip-path="url(#clip0_7_638)">
<path d="M289.17 156.058C285 156.058 281.181 153.357 279.768 149.443C278.351 145.519 279.596 140.974 282.827 138.325C286.147 135.603 290.974 135.325 294.584 137.649C297.966 139.827 299.755 143.98 298.99 147.933C298.089 152.578 293.914 156.058 289.17 156.058Z" fill="#E68D3B"/>
<path d="M458.952 136.056H447.278V114.238C447.278 96.8057 433.135 82.6247 415.752 82.6247H261.27C254.915 82.6247 249.745 77.4157 249.745 71.0117C249.745 70.9747 249.745 70.9377 249.745 70.8997C249.717 62.3538 246.377 54.3307 240.333 48.2977C234.305 42.2807 226.308 38.9688 217.81 38.9688H217.76L31.892 39.2167C14.307 39.2427 0 53.6108 0 71.2458V419.807C0 449.154 23.797 473.03 53.048 473.03H458.952C488.202 473.03 512 449.155 512 419.807V189.278C512 159.931 488.203 136.056 458.952 136.056ZM492 419.806C492 438.125 477.175 453.029 458.952 453.029H84.722V189.279C84.722 170.96 99.549 156.056 117.773 156.056H243.781C249.304 156.056 253.781 151.579 253.781 146.056C253.781 140.533 249.304 136.056 243.781 136.056H117.773C88.521 136.056 64.722 159.931 64.722 189.279V453.029H53.048C34.825 453.029 20 438.125 20 419.806V71.2458C20 64.6228 25.348 59.2267 31.92 59.2167L217.786 58.9688H217.805C220.97 58.9688 223.951 60.2057 226.202 62.4517C228.485 64.7307 229.743 67.7677 229.744 71.0037V71.1127C229.799 88.4967 243.92 102.624 261.269 102.624H415.751C422.106 102.624 427.277 107.833 427.277 114.237V136.055H334.192C328.669 136.055 324.192 140.532 324.192 146.055C324.192 151.578 328.669 156.055 334.192 156.055H458.951C477.174 156.055 491.999 170.959 491.999 189.278V419.806H492Z" fill="#17C8DA"/>
<path d="M331.659 208.578C327.125 208.578 318.704 210.059 298.012 222.863C292.059 226.546 284.664 226.547 278.712 222.863C258.019 210.059 249.598 208.578 245.064 208.578C227.489 208.578 211.356 215.805 199.635 228.929C188.675 241.201 182.639 257.304 182.639 274.274C182.639 293.242 193.395 307.734 206.389 323.378L208.11 325.444C217.011 336.111 220.342 340.103 220.342 352V360.159C220.342 387.457 239.858 410.526 266.746 415.01C269.644 415.493 272.611 414.677 274.854 412.777C277.097 410.877 278.391 408.087 278.391 405.147V349.624C278.391 344.162 282.833 339.688 288.294 339.65H288.365C291.014 339.65 293.506 340.677 295.388 342.546C297.287 344.432 298.334 346.946 298.334 349.624V405.147C298.334 408.087 299.627 410.877 301.871 412.777C303.69 414.319 305.985 415.147 308.334 415.147C308.881 415.147 309.432 415.102 309.98 415.011C336.868 410.527 356.383 387.459 356.383 360.16V352.001C356.383 340.104 359.714 336.112 368.615 325.445L370.336 323.379C383.33 307.735 394.086 293.243 394.086 274.275C394.086 257.306 388.05 241.203 377.09 228.93C365.368 215.805 349.233 208.578 331.659 208.578ZM354.949 310.598L353.256 312.63C343.459 324.371 336.381 332.855 336.381 352V360.159C336.381 373.373 329.246 385.038 318.333 391.186V349.623C318.333 341.577 315.189 334.023 309.48 328.354C303.772 322.685 296.195 319.598 288.154 319.65C271.742 319.763 258.39 333.209 258.39 349.623V391.187C247.476 385.04 240.341 373.374 240.341 360.16V352.001C240.341 332.856 233.262 324.373 223.466 312.631L221.773 310.599C210.931 297.547 202.638 286.584 202.638 274.274C202.638 262.226 206.869 250.854 214.551 242.252C222.426 233.435 233.262 228.579 245.042 228.579C245.242 228.586 249.88 228.863 265.306 238.115L267.348 240.465C278.443 253.234 294.031 260.064 310.034 260.064C317.934 260.064 325.937 258.398 333.547 254.96C338.58 252.686 340.817 246.763 338.542 241.73C336.268 236.697 330.344 234.459 325.312 236.735C319.821 239.216 314.015 240.271 308.334 239.997C308.402 239.956 308.469 239.914 308.537 239.873C326.275 228.897 331.47 228.587 331.661 228.58C343.463 228.58 354.299 233.436 362.174 242.253C369.856 250.855 374.087 262.228 374.087 274.275C374.084 286.584 365.791 297.546 354.949 310.598Z" fill="#E68D3B"/>
</g>
<defs>
<clipPath id="clip0_7_638">
<rect width="512" height="512" fill="white"/>
</clipPath>
</defs>
</svg>
