<svg width="512" height="512" viewBox="0 0 512 512" fill="none" xmlns="http://www.w3.org/2000/svg">
<path d="M236.656 195.441C244.464 194.977 252.016 190.097 254.08 181.089L256 172.769C256 172.769 257.904 181.073 257.904 181.089C262.064 199.201 288.096 200.721 294.32 183.233L317.104 119.441C322.672 103.857 317.808 87.2491 304.72 77.1051C291.568 66.8651 274.128 66.2891 260.32 75.6651C258.88 76.6251 257.44 77.6491 256 78.6571C254.56 77.6491 253.12 76.6251 251.68 75.6491C237.888 66.2891 220.448 66.8491 207.28 77.0891C194.192 87.2331 189.328 103.841 194.896 119.425C194.896 119.425 217.632 183.105 217.68 183.217C220.784 191.937 228.848 195.905 236.656 195.441ZM217.056 89.6971C218.816 88.3211 220.816 87.1851 223.024 86.3851C229.12 84.1771 236.208 84.8651 241.76 88.2091C238.192 90.4811 234.192 92.0971 230.032 92.9291C227.6 93.4251 225.056 93.6651 222.864 94.8491C215.536 98.7691 219.952 110.017 227.728 109.489C243.888 108.305 256.432 97.6011 269.28 88.9131C278.944 82.3851 288.88 85.0411 294.912 89.7451C300.912 94.3851 305.92 103.217 302.048 114.065L279.264 177.857C278.592 179.681 276.992 179.953 276.256 179.841C275.232 179.777 273.92 179.329 273.504 177.521L265.92 144.433C264.864 139.777 260.768 136.513 255.984 136.513C251.216 136.513 247.136 139.761 246.08 144.417L238.496 177.489C238.064 179.377 236.592 179.761 235.744 179.809C234.816 179.761 233.376 179.649 232.736 177.841L209.952 114.049C206.752 105.105 209.92 95.3131 217.056 89.6971Z" fill="white"/>
<path d="M456 272H384V174.528C393.296 171.216 400 162.416 400 152C400 138.768 389.232 128 376 128H352C352 75.056 308.944 32 256 32C203.056 32 160 75.056 160 128H135.984C122.752 128 111.984 138.768 111.984 152C111.984 162.416 118.704 171.216 128 174.528V208H56C42.768 208 32 218.768 32 232C32 242.416 38.704 251.216 48 254.528V472C48 476.416 51.584 480 56 480H456C460.416 480 464 476.416 464 472V318.528C473.296 315.216 480 306.416 480 296C480 282.768 469.232 272 456 272ZM350.56 144H376C380.4 144 384 147.6 384 152C384 156.4 380.4 160 376 160H346.4C348.224 154.848 349.632 149.504 350.56 144ZM256 48C300.112 48 336 83.888 336 128C336 172.112 300.112 208 256 208C211.888 208 176 172.112 176 128C176 83.888 211.888 48 256 48ZM127.984 152C127.984 147.6 131.584 144 135.984 144H161.44C162.368 149.504 163.76 154.848 165.6 160H136H135.984C131.584 160 127.984 156.4 127.984 152ZM160 464H64V256H160V464ZM168 240H56C51.6 240 48 236.4 48 232C48 227.6 51.6 224 56 224H168C172.4 224 176 227.6 176 232C176 236.4 172.4 240 168 240ZM248 464H224V368H248V464ZM288 464H264V368H288V464ZM336 464H304V360C304 355.584 300.416 352 296 352H216C211.584 352 208 355.584 208 360V464H176V254.528C185.296 251.216 192 242.416 192 232C192 218.768 181.232 208 168 208H144V176H173.008C189.632 204.64 220.56 224 256 224C291.44 224 322.368 204.64 338.992 176H368V272H344C330.768 272 320 282.768 320 296C320 306.416 326.704 315.216 336 318.528V464ZM448 464H352V320H448V464ZM456 304H344C339.6 304 336 300.4 336 296C336 291.6 339.6 288 344 288H456C460.4 288 464 291.6 464 296C464 300.4 460.4 304 456 304Z" fill="white"/>
<path d="M200 224C195.584 224 192 227.584 192 232V328C192 332.416 195.584 336 200 336H312C316.416 336 320 332.416 320 328V232C320 227.584 316.416 224 312 224H256H200ZM304 288H288V272H304V288ZM272 288H240V272H272V288ZM208 272H224V288H208V272ZM208 240H224V256H208V240ZM208 304H224V320H208V304ZM240 304H272V320H240V304ZM304 320H288V304H304V320ZM304 256H288V240H304V256ZM272 240V256H240V240H272Z" fill="white"/>
<path d="M376 384H424C428.416 384 432 380.416 432 376V344C432 339.584 428.416 336 424 336H376C371.584 336 368 339.584 368 344V376C368 380.416 371.584 384 376 384ZM384 352H416V368H384V352Z" fill="white"/>
<path d="M376 448H424C428.416 448 432 444.416 432 440V408C432 403.584 428.416 400 424 400H376C371.584 400 368 403.584 368 408V440C368 444.416 371.584 448 376 448ZM384 416H416V432H384V416Z" fill="white"/>
<path d="M136 400H88C83.584 400 80 403.584 80 408V440C80 444.416 83.584 448 88 448H136C140.416 448 144 444.416 144 440V408C144 403.584 140.416 400 136 400ZM128 432H96V416H128V432Z" fill="white"/>
<path d="M136 336H88C83.584 336 80 339.584 80 344V376C80 380.416 83.584 384 88 384H136C140.416 384 144 380.416 144 376V344C144 339.584 140.416 336 136 336ZM128 368H96V352H128V368Z" fill="white"/>
<path d="M136 272H88C83.584 272 80 275.584 80 280V312C80 316.416 83.584 320 88 320H136C140.416 320 144 316.416 144 312V280C144 275.584 140.416 272 136 272ZM128 304H96V288H128V304Z" fill="white"/>
</svg>
