<svg width="512" height="512" viewBox="0 0 512 512" fill="none" xmlns="http://www.w3.org/2000/svg">
<path d="M438 241.156C433.809 241.156 430.013 238.459 428.593 234.525C427.197 230.66 428.389 226.191 431.531 223.534C434.814 220.758 439.623 220.414 443.277 222.67C446.775 224.831 448.61 229.088 447.8 233.115C446.872 237.734 442.713 241.156 438 241.156Z" fill="#E68D3B"/>
<path d="M502 472.308H447.754V393.8H487.907C493.429 393.8 497.907 389.322 497.907 383.8C497.907 378.278 493.429 373.8 487.907 373.8H471.338L447.983 353.561C447.994 353.369 448 353.176 448 352.982V276.188C448 270.666 443.522 266.188 438 266.188C432.478 266.188 428 270.666 428 276.188V336.244L351.909 270.304C350.091 268.729 347.766 267.862 345.36 267.862H266.743V247.603H303.47C308.992 247.603 313.47 243.125 313.47 237.603C313.47 232.081 308.992 227.603 303.47 227.603H214.573C209.051 227.603 204.573 232.081 204.573 237.603C204.573 243.125 209.051 247.603 214.573 247.603H246.744V267.862H166.796L93.3556 156.517C81.1646 138.034 56.9666 131.425 37.0786 141.142L5.61164 156.512C3.02764 157.774 1.11164 160.088 0.353643 162.862C-0.404357 165.636 0.0686426 168.603 1.65264 171.004L115.358 343.401C116.615 345.306 118.466 346.696 120.578 347.392C120.579 347.392 120.579 347.392 120.58 347.393C120.631 347.41 120.682 347.426 120.732 347.442C120.735 347.443 120.737 347.444 120.74 347.444C120.786 347.459 120.833 347.473 120.879 347.486C120.888 347.489 120.896 347.491 120.905 347.494C120.948 347.506 120.992 347.519 121.035 347.531C121.044 347.534 121.053 347.536 121.062 347.539C121.105 347.551 121.148 347.562 121.191 347.573C121.201 347.576 121.212 347.578 121.222 347.581C121.266 347.592 121.311 347.603 121.355 347.614C121.363 347.616 121.371 347.618 121.379 347.62C121.485 347.645 121.592 347.669 121.699 347.691C121.708 347.693 121.716 347.694 121.725 347.696C121.769 347.705 121.813 347.714 121.856 347.722C121.876 347.726 121.896 347.729 121.916 347.733C121.95 347.739 121.983 347.745 122.017 347.751C122.037 347.754 122.057 347.758 122.078 347.761C122.111 347.766 122.143 347.772 122.176 347.777C122.199 347.78 122.223 347.784 122.246 347.787C122.276 347.791 122.305 347.796 122.334 347.8C122.359 347.803 122.383 347.807 122.408 347.81C122.437 347.814 122.466 347.818 122.494 347.821C122.52 347.824 122.547 347.827 122.573 347.83C122.599 347.833 122.626 347.836 122.652 347.839C122.679 347.842 122.707 347.845 122.734 347.847C122.761 347.85 122.788 347.852 122.814 347.855C122.841 347.857 122.867 347.86 122.894 347.862C122.924 347.864 122.953 347.867 122.983 347.869C123.007 347.871 123.031 347.872 123.055 347.874C123.086 347.876 123.116 347.878 123.147 347.879C123.171 347.88 123.194 347.882 123.218 347.883C123.252 347.885 123.286 347.886 123.321 347.887C123.341 347.888 123.361 347.889 123.381 347.889C123.422 347.89 123.463 347.891 123.504 347.892C123.517 347.892 123.53 347.893 123.544 347.893C123.599 347.894 123.655 347.894 123.71 347.894H189.756V374.624C189.756 380.146 194.234 384.624 199.756 384.624H223.86V472.307H198.948C193.426 472.307 188.948 476.785 188.948 482.307C188.948 487.829 193.426 492.307 198.948 492.307H327.27C332.792 492.307 337.27 487.829 337.27 482.307C337.27 476.785 332.792 472.307 327.27 472.307H297.504V384.624H321.608C327.13 384.624 331.608 380.146 331.608 374.624V358.779L368.57 391.307C370.396 392.913 372.745 393.8 375.176 393.8H427.754V472.308H373.677C368.155 472.308 363.677 476.786 363.677 482.308C363.677 487.83 368.155 492.308 373.677 492.308H502C507.522 492.308 512 487.83 512 482.308C512 476.786 507.523 472.308 502 472.308ZM45.8556 159.113C56.7466 153.794 69.9876 157.412 76.6606 167.529L149.541 278.026L123.508 319.432L24.6116 169.49L45.8556 159.113ZM277.504 472.308H243.859V384.625H277.504V472.308ZM311.608 364.625H209.756V347.895H311.608V364.625ZM378.949 373.8L329.619 330.388C327.793 328.782 325.444 327.895 323.013 327.895H141.81L166.981 287.862H341.63L440.799 373.8H378.949Z" fill="#17C8DA"/>
<path d="M304.251 151.403C306.126 153.278 308.67 154.332 311.322 154.332C313.974 154.332 316.517 153.278 318.393 151.403L323.432 146.364C346.026 123.769 350.98 90.1112 338.294 62.6652H357.043C396.033 62.6652 427.754 94.3873 427.754 133.425L428 185.82C428.026 191.327 432.498 195.773 437.999 195.773H438.047C443.569 195.747 448.026 191.249 448 185.726L447.754 133.377C447.754 83.3573 407.062 42.6642 357.043 42.6642H324.674C324.266 42.2372 323.853 41.8122 323.433 41.3932C294.492 12.4522 247.402 12.4522 218.46 41.3932L213.423 46.4302C209.518 50.3352 209.518 56.6672 213.423 60.5732L304.251 151.403ZM270.946 39.6533C285.43 39.6533 299.048 45.2943 309.29 55.5373C319.532 65.7783 325.172 79.3953 325.172 93.8793C325.172 107.401 320.257 120.168 311.27 130.138L234.689 53.5552C244.658 44.5682 257.425 39.6533 270.946 39.6533Z" fill="#E68D3B"/>
</svg>
