<svg width="582" height="582" viewBox="0 0 582 582" fill="none" xmlns="http://www.w3.org/2000/svg">
<g clip-path="url(#clip0_7_747)">
<path d="M439.563 398.667H378.667V377.333H525.589C531.13 377.333 535.745 373.094 536.219 367.573C536.688 362.057 532.859 357.094 527.401 356.156C465.307 345.464 440.698 280.599 435.943 266.115C440.469 254.219 443.547 241.823 445.099 229.188C463.375 224.604 476.224 208.224 476.328 189.38C476.432 171.057 464.297 154.906 446.667 149.906V141.333H452.156C454.922 141.427 457.604 140.396 459.589 138.464C461.573 136.536 462.682 133.885 462.667 131.12V39.0417C462.719 17.5365 445.333 0.0572917 423.823 0H154.677C144.365 0.03125 134.49 4.16667 127.234 11.4948C119.979 18.8177 115.938 28.7292 116 39.0417V131.12C115.943 133.865 117.021 136.516 118.974 138.448C120.932 140.38 123.594 141.422 126.344 141.333H134.667V149.859C117.333 154.74 103.568 170.859 103.568 189.38C103.568 208.318 117.755 224.75 136.146 229.219C137.714 241.786 140.781 254.12 145.286 265.958C140.693 280.099 116.271 345.38 53.6875 356.156C48.224 357.094 44.3906 362.063 44.8698 367.583C45.3438 373.104 49.9688 377.344 55.5156 377.333H202.667V398.667H141.771C81.2917 398.667 32 448.104 32 508.589V570.625C32.0365 576.542 36.8385 581.318 42.7552 581.333H538.578C544.495 581.318 549.297 576.542 549.333 570.625V508.589C549.333 448.104 500.042 398.667 439.563 398.667ZM288.745 446.401L224 403.922V352.484C266.016 373.26 315.318 373.26 357.333 352.484V403.521L288.745 446.401ZM290.667 346.734C255.016 346.734 221.323 332.297 195.802 306.083C177.328 287.224 164.641 263.469 159.245 237.63L260.609 267.302C280.234 273.057 301.099 273.057 320.724 267.302L422.089 237.63C416.693 263.469 404.005 287.224 385.531 306.083C360.01 332.297 326.318 346.734 290.667 346.734ZM437.234 317.229C446.953 332.255 459.318 345.391 473.734 356H378.667V339.734C386.604 334.219 393.974 327.932 400.677 320.969C409.245 312.203 416.797 302.49 423.182 292.021C427.224 300.766 431.922 309.193 437.234 317.229ZM455.177 189.38C455.26 195.875 452.057 201.969 446.667 205.583V173.182C452.057 176.797 455.26 182.891 455.177 189.38ZM137.333 39.0417C137.266 34.3854 139.057 29.8958 142.313 26.5729C145.568 23.2448 150.021 21.3594 154.677 21.3333H423.823C428.495 21.3542 432.969 23.2344 436.255 26.5521C439.537 29.875 441.365 34.3698 441.333 39.0417V120H137.333V39.0417ZM425.333 141.333V209.599C425.333 211.266 425.109 212.932 425.052 214.589L314.823 246.833C299.094 251.438 282.375 251.438 266.646 246.833L156.302 214.589C156.245 212.927 156 211.266 156 209.594V141.333H425.333ZM124.719 189.38C124.719 182.651 129.333 176.464 134.667 172.88V205.885C129.333 202.302 124.719 196.115 124.719 189.38ZM107.391 356C121.813 345.391 134.193 332.26 143.927 317.234C149.255 309.156 153.958 300.677 158 291.88C164.432 302.401 172.036 312.156 180.667 320.964C187.365 327.927 194.734 334.214 202.667 339.734V356H107.391ZM53.3333 508.589C53.4115 459.75 92.9375 420.156 141.771 420H209.677L277.333 464.823V560H53.3333V508.589ZM528 560H298.667V464.974L371.146 420H439.563C488.396 420.156 527.922 459.75 528 508.589V560Z" fill="#17C8DA"/>
<path d="M225.719 215.352C245.266 215.326 261.104 199.487 261.13 179.94C261.13 174.049 256.354 169.273 250.464 169.273C244.568 169.273 239.797 174.049 239.797 179.94C239.719 187.659 233.438 193.883 225.719 193.883C218 193.883 211.719 187.659 211.646 179.94C211.646 174.049 206.87 169.273 200.979 169.273C195.089 169.273 190.312 174.049 190.312 179.94C190.333 199.487 206.172 215.326 225.719 215.352Z" fill="#17C8DA"/>
<path d="M349.427 215.352C368.974 215.326 384.812 199.487 384.838 179.94C384.838 174.049 380.062 169.273 374.172 169.273C368.276 169.273 363.505 174.049 363.505 179.94C363.505 187.716 357.203 194.018 349.427 194.018C341.656 194.018 335.354 187.716 335.354 179.94C335.354 174.049 330.578 169.273 324.687 169.273C318.797 169.273 314.021 174.049 314.021 179.94C314.041 199.487 329.88 215.326 349.427 215.352Z" fill="#17C8DA"/>
<path d="M308 60H300V50.6667C300 44.776 295.224 40 289.333 40C283.442 40 278.666 44.776 278.666 50.6667V60H272C266.109 60 261.333 64.776 261.333 70.6667C261.333 76.5573 266.109 81.3333 272 81.3333H278.666V86.6667C278.666 92.5573 283.442 97.3333 289.333 97.3333C295.224 97.3333 300 92.5573 300 86.6667V81.3333H308C313.89 81.3333 318.666 76.5573 318.666 70.6667C318.666 64.776 313.89 60 308 60Z" fill="#E68D3B"/>
</g>
<defs>
<clipPath id="clip0_7_747">
<rect width="581.333" height="581.333" fill="white"/>
</clipPath>
</defs>
</svg>
