<svg width="512" height="512" viewBox="0 0 512 512" fill="none" xmlns="http://www.w3.org/2000/svg">
<path d="M211.584 287.52C199.152 287.52 186.736 280.768 181.776 266.864L132.416 128.688C121.744 98.8479 131.072 66.9919 156.176 47.5359C181.472 27.9199 214.928 26.8479 241.456 44.7679C246.368 48.0959 251.184 51.5679 256.016 55.0079L256.912 54.3679C261.504 51.0879 266.032 47.8399 270.576 44.7679C297.104 26.8479 330.576 27.9359 355.856 47.5359C380.944 66.9919 390.272 98.8479 379.616 128.688C379.616 128.688 330.336 266.672 330.272 266.864C319.84 296.08 276.192 293.504 269.264 263.296L256 205.616L242.768 263.296C239.12 279.248 225.344 287.52 211.584 287.52ZM200.656 48.0799C188.48 48.0799 176.336 52.1279 165.984 60.1599C150.432 72.2239 137.424 95.1359 147.472 123.312L196.816 261.488C199.76 269.728 206.864 272.352 212.656 271.968C218.384 271.632 225.216 268.24 227.168 259.696L243.6 188.048C244.928 182.24 250.016 178.176 255.984 178.176C261.952 178.176 267.024 182.224 268.368 188.032L284.8 259.712C286.752 268.192 293.568 271.584 299.296 271.92C305.184 272.144 312.224 269.68 315.152 261.488L364.496 123.312C374.544 95.1359 361.536 72.2239 346 60.1759C326.288 44.8959 300.176 44.0479 279.504 58.0159C276.304 60.1759 273.104 62.4479 269.872 64.7359C285.216 75.0559 301.28 83.7439 319.024 85.0399C323.424 85.3599 326.736 89.1839 326.416 93.5999C326.096 98.0159 322.256 101.424 317.856 100.992C290.912 99.0559 267.904 83.2159 246.608 67.9839C232.432 57.8399 218.896 48.0799 200.656 48.0799Z" fill="white"/>
<path d="M159.584 126.608C156.512 126.864 153.424 125.456 152.064 121.664C147.072 107.712 148.384 92.3363 155.648 79.4563C157.808 75.6163 162.704 74.2403 166.544 76.4163C170.4 78.5923 171.76 83.4723 169.584 87.3123C164.608 96.1443 163.696 106.704 167.12 116.272C169.104 121.84 164.368 126.224 159.584 126.608Z" fill="white"/>
<path d="M175.456 77.1352C167.824 77.0872 164.592 67.0872 170.816 62.6392C173.072 61.0392 175.472 59.5992 178 58.3352C187.216 53.7432 194.4 68.0312 185.136 72.6552C183.344 73.5512 181.648 74.5592 180.08 75.6792C178.704 76.6712 177.088 77.1512 175.456 77.1352Z" fill="white"/>
<path d="M224 420.43V355.262C224 344.718 219.728 334.414 212.288 326.958L153.344 267.966C152.928 267.55 152.432 267.262 152.016 266.878V199.998C152 186.766 141.232 175.998 128 175.998V167.998C128 154.766 117.232 143.998 104 143.998C101.184 143.998 98.512 144.574 96 145.47V143.758C96 126.094 81.648 111.742 64 111.742C46.352 111.742 32 126.11 32 143.758V279.854C32 292.526 35.312 305.054 41.92 316.67L112.992 419.886C102.928 425.294 96 435.79 96 447.982C96 465.646 110.352 479.998 128.016 479.998H207.984C225.648 479.998 240 465.646 240 447.982C240 436.19 233.52 425.982 224 420.43ZM136 199.998V259.182C133.36 258.75 130.672 258.718 128 258.958V192.11C132.096 192.286 136 195.614 136 199.998ZM104 159.998C108.416 159.998 112 163.582 112 167.998V264.83C110.64 265.806 109.28 266.798 108.048 268.014C104.176 271.95 101.552 276.702 100.112 281.726L96 277.55V167.998C96 163.582 99.584 159.998 104 159.998ZM126.592 411.422L55.472 308.19C50.592 299.566 48 289.774 48 279.854V143.758C48 134.926 55.184 127.742 64 127.742C72.816 127.742 80 134.926 80 143.758V280.814C80 282.91 80.832 284.926 82.304 286.43L143.344 348.478C146.448 351.614 151.504 351.662 154.656 348.574C157.808 345.47 157.856 340.414 154.752 337.262L117.392 299.294C113.344 293.006 114.144 284.654 119.376 279.326C125.68 273.134 135.824 273.07 142.032 279.278L200.976 338.27C205.44 342.734 208 348.926 208 355.246V415.966H207.984H128.016C127.968 415.966 127.904 415.982 127.856 415.982C127.856 414.414 127.552 412.814 126.592 411.422ZM207.984 463.998H128.016C119.184 463.998 112 456.814 112 447.982C112 439.15 119.184 431.966 128.016 431.966H207.984C216.816 431.966 224 439.15 224 447.982C224 456.814 216.816 463.998 207.984 463.998Z" fill="white"/>
<path d="M197.368 453.82C200.607 450.815 200.797 445.754 197.792 442.514C194.787 439.275 189.725 439.086 186.486 442.09C183.247 445.095 183.057 450.157 186.062 453.396C189.067 456.635 194.129 456.825 197.368 453.82Z" fill="white"/>
<path d="M325.775 453.415C328.78 450.176 328.59 445.114 325.351 442.109C322.112 439.105 317.05 439.294 314.045 442.534C311.04 445.773 311.23 450.834 314.469 453.839C317.709 456.844 322.77 456.654 325.775 453.415Z" fill="white"/>
<path d="M448 111.742C430.352 111.742 416 126.094 416 143.758V145.47C413.488 144.574 410.816 143.998 408 143.998C394.768 143.998 384 154.766 384 167.998V175.998C370.768 175.998 360 186.766 360 199.998V266.862C359.568 267.246 359.072 267.534 358.672 267.95L299.728 326.942C292.272 334.398 288 344.702 288 355.246V420.414C278.48 425.966 272 436.174 272 447.966C272 465.646 286.352 479.998 304.016 479.998H383.984C401.648 479.998 416 465.646 416 447.982C416 435.79 409.072 425.294 399.008 419.886L470.448 316.078C476.688 305.054 480 292.526 480 279.854V143.758C480 126.11 465.648 111.742 448 111.742ZM408 159.998C412.416 159.998 416 163.582 416 167.998V277.55L411.888 281.742C410.432 276.686 407.776 271.902 403.856 267.918C402.656 266.734 401.328 265.774 400 264.83V167.998C400 163.582 403.584 159.998 408 159.998ZM376 199.998C376 195.614 379.92 192.27 384 192.11V258.942C381.328 258.718 378.656 258.75 376 259.182V199.998ZM383.984 463.998H304.016C295.184 463.998 288 456.814 288 447.982C288 439.15 295.184 431.966 304.016 431.966H383.984C392.816 431.966 400 439.15 400 447.982C400 456.814 392.816 463.998 383.984 463.998ZM464 279.854C464 289.774 461.408 299.566 456.912 307.582L385.424 411.406C384.464 412.798 384.144 414.398 384 415.95C384 415.95 304.032 415.95 304.016 415.95V355.23C304.016 348.894 306.576 342.718 311.04 338.238L369.984 279.246C376.16 273.07 386.32 273.086 392.544 279.198C397.872 284.606 398.688 292.99 394.624 299.262C394.624 299.262 357.36 337.134 357.264 337.23C350.016 344.59 361.424 355.79 368.672 348.446L429.712 286.398C431.168 284.942 432 282.926 432 280.83V143.758C432 134.926 439.184 127.742 448 127.742C456.816 127.742 464 134.926 464 143.758V279.854Z" fill="white"/>
</svg>
