<svg width="512" height="512" viewBox="0 0 512 512" fill="none" xmlns="http://www.w3.org/2000/svg">
<path d="M101.33 312.661C97.132 312.661 93.3519 309.949 91.9229 306.025C90.5149 302.156 91.731 297.698 94.861 295.038C98.133 292.257 102.957 291.897 106.606 294.165C110.107 296.34 111.928 300.575 111.129 304.611C110.217 309.225 106.036 312.661 101.33 312.661Z" fill="white"/>
<path d="M365.307 164.203H281.657C276.135 164.203 271.657 159.726 271.657 154.203C271.657 148.68 276.135 144.203 281.657 144.203H365.307C370.829 144.203 375.307 148.68 375.307 154.203C375.307 159.726 370.829 164.203 365.307 164.203Z" fill="white"/>
<path d="M365.307 204.969H281.657C276.135 204.969 271.657 200.492 271.657 194.969C271.657 189.446 276.135 184.969 281.657 184.969H365.307C370.829 184.969 375.307 189.446 375.307 194.969C375.307 200.492 370.829 204.969 365.307 204.969Z" fill="white"/>
<path d="M336.249 245.734H281.656C276.134 245.734 271.656 241.257 271.656 235.734C271.656 230.211 276.134 225.734 281.656 225.734H336.249C341.771 225.734 346.249 230.211 346.249 235.734C346.249 241.257 341.771 245.734 336.249 245.734Z" fill="white"/>
<path d="M212.104 252.09H175.521C169.998 252.09 165.521 247.613 165.521 242.09V223.262H146.694C141.171 223.262 136.694 218.785 136.694 213.262V176.679C136.694 171.156 141.171 166.679 146.694 166.679H165.521V147.852C165.521 142.329 169.998 137.852 175.521 137.852H212.104C217.627 137.852 222.104 142.329 222.104 147.852V166.68H240.932C246.455 166.68 250.932 171.157 250.932 176.68V213.263C250.932 218.786 246.455 223.263 240.932 223.263H222.104V242.091C222.104 247.613 217.626 252.09 212.104 252.09ZM185.521 232.09H202.104V213.262C202.104 207.739 206.581 203.262 212.104 203.262H230.932V186.679H212.104C206.581 186.679 202.104 182.202 202.104 176.679V157.852H185.521V176.68C185.521 182.203 181.044 186.68 175.521 186.68H156.694V203.263H175.521C181.044 203.263 185.521 207.74 185.521 213.263V232.09Z" fill="white"/>
<path d="M424.759 52.932H304.677C304.788 51.578 304.845 50.215 304.845 48.845C304.845 21.912 282.933 0 256 0C229.066 0 207.155 21.912 207.155 48.845C207.155 50.215 207.211 51.578 207.323 52.932H87.2411C65.2331 52.932 47.3291 70.836 47.3291 92.844V472.088C47.3291 494.096 65.2331 512 87.2411 512H424.759C446.767 512 464.671 494.096 464.671 472.088V92.844C464.671 70.836 446.767 52.932 424.759 52.932ZM219.789 72.932C223.091 72.932 226.18 71.302 228.043 68.577C229.907 65.852 230.305 62.382 229.107 59.305C227.811 55.976 227.154 52.457 227.154 48.845C227.155 32.939 240.095 20 256 20C271.905 20 284.845 32.939 284.845 48.845C284.845 52.457 284.188 55.976 282.893 59.305C281.695 62.382 282.093 65.852 283.956 68.577C285.82 71.303 288.909 72.932 292.211 72.932H340.601V96.932H171.4V72.932H219.789ZM444.671 472.088C444.671 483.067 435.738 492 424.759 492H87.2411C76.2621 492 67.3291 483.067 67.3291 472.088V92.844C67.3291 81.865 76.2621 72.932 87.2411 72.932H151.4V96.932H101.329C95.8061 96.932 91.3291 101.409 91.3291 106.932V257.269C91.3291 262.792 95.8061 267.269 101.329 267.269C106.852 267.269 111.329 262.792 111.329 257.269V116.932H400.671V278.268C389.242 267.093 374.291 260.989 358.124 260.989C353.582 260.989 345.145 262.473 324.411 275.302C318.435 278.999 311.014 278.998 305.04 275.302C284.305 262.472 275.868 260.989 271.326 260.989C253.718 260.989 237.553 268.229 225.809 281.377C214.827 293.672 208.779 309.806 208.779 326.807C208.779 345.81 219.558 360.331 232.579 376.006L234.304 378.076C243.23 388.772 246.57 392.774 246.57 404.705V412.882C246.57 426.126 251.156 438.377 258.946 448H111.329V347.681C111.329 342.158 106.852 337.681 101.329 337.681C95.8061 337.681 91.3291 342.158 91.3291 347.681V458C91.3291 463.523 95.8061 468 101.329 468H410.671C416.193 468 420.671 463.523 420.671 458V106.932C420.671 101.409 416.193 96.932 410.671 96.932H360.601V72.932H424.759C435.738 72.932 444.671 81.865 444.671 92.844V472.088ZM249.66 365.262L247.964 363.226C237.094 350.142 228.78 339.152 228.78 326.807C228.78 314.727 233.023 303.325 240.726 294.7C248.624 285.858 259.491 280.989 271.307 280.989C271.508 280.996 276.159 281.27 291.633 290.552L293.682 292.909C304.798 305.701 320.415 312.543 336.449 312.543C344.363 312.543 352.383 310.874 360.006 307.43C365.039 305.156 367.276 299.232 365.002 294.2C362.727 289.166 356.803 286.93 351.772 289.204C346.241 291.703 340.393 292.76 334.673 292.472C334.761 292.419 334.849 292.365 334.936 292.311C352.725 281.304 357.934 280.997 358.126 280.99C369.962 280.99 380.829 285.86 388.728 294.7C396.431 303.325 400.673 314.728 400.673 326.807C400.673 339.151 392.359 350.141 381.488 363.226L379.79 365.265C369.975 377.028 362.882 385.527 362.882 404.705V412.882C362.882 426.147 355.711 437.857 344.745 444.016V402.322C344.745 394.264 341.597 386.7 335.879 381.022C330.162 375.344 322.549 372.236 314.519 372.304C298.082 372.418 284.709 385.884 284.709 402.322V444.016C273.743 437.856 266.571 426.147 266.571 412.882V404.705C266.569 385.525 259.477 377.025 249.66 365.262ZM304.707 402.323C304.707 396.837 309.17 392.343 314.655 392.305C317.351 392.277 319.877 393.319 321.784 395.214C323.692 397.109 324.743 399.633 324.743 402.322V448H304.707V402.323ZM382.88 412.882V404.705C382.88 392.775 386.22 388.773 395.145 378.079L396.872 376.007C398.164 374.452 399.433 372.909 400.672 371.372V448H370.505C378.294 438.377 382.88 426.127 382.88 412.882Z" fill="white"/>
</svg>
