<svg width="512" height="512" viewBox="0 0 512 512" fill="none" xmlns="http://www.w3.org/2000/svg">
<g clip-path="url(#clip0_7_533)">
<path d="M334.851 450.102C330.672 450.102 326.851 447.408 325.446 443.472C324.065 439.604 325.238 435.14 328.382 432.48C331.664 429.704 336.475 429.358 340.127 431.616C343.633 433.783 345.448 438.028 344.65 442.062C343.738 446.683 339.553 450.102 334.851 450.102Z" fill="#17C8DA"/>
<path d="M56.787 221.442C54.335 221.442 51.853 220.891 49.519 219.748C42.591 216.356 38.976 208.741 40.728 201.229L57.393 129.76L15.885 109.783C11.238 107.546 9.05296 102.142 10.842 97.304L44.098 7.36C45.537 3.467 49.231 0.868004 53.381 0.828004L139.49 0.00100383C142.975 -0.0489962 146.263 1.772 148.102 4.758C149.94 7.744 150.081 11.474 148.472 14.589L119.598 70.5L155.303 91.251C157.829 92.719 159.587 95.219 160.114 98.092C160.641 100.965 159.885 103.926 158.045 106.196L69.538 215.333C66.316 219.306 61.611 221.442 56.787 221.442ZM32.756 95.708L73.288 115.215C77.509 117.246 79.754 121.935 78.69 126.497L63.702 190.778L135.152 102.673L101.322 83.011C96.714 80.333 95.016 74.511 97.462 69.776L123.086 20.16L60.467 20.762L32.756 95.708Z" fill="#E68D3B"/>
<path d="M501.118 221.043C501.118 221.04 501.117 221.036 501.117 221.033C498.499 195.519 488.336 172.205 471.728 153.612C466.614 147.885 460.96 142.738 454.92 138.312C454.914 138.307 454.908 138.303 454.902 138.298C436.701 124.948 414.951 117.891 392.003 117.891C387.668 117.891 374.476 117.891 332.722 143.721C318.454 152.55 300.734 152.55 286.471 143.72C244.698 117.891 231.523 117.891 227.193 117.891C196.347 117.891 168.03 130.577 147.457 153.611C128.083 175.306 117.414 203.82 117.414 233.901C117.414 270.093 141.539 298.915 164.866 326.784C168.098 330.649 171.086 334.123 173.974 337.484C193.123 359.761 201.862 369.928 201.862 400.837V416.37C201.862 439.423 210.099 461.755 225.056 479.254C239.846 496.558 260.293 508.138 282.63 511.86C283.177 511.951 283.727 511.996 284.274 511.996C286.624 511.996 288.919 511.167 290.738 509.626C292.981 507.726 294.274 504.935 294.274 501.996V376.687C294.274 368.175 300.948 361.067 309.155 360.842C313.33 360.731 317.283 362.263 320.271 365.169C323.264 368.081 324.913 371.986 324.913 376.132L324.855 394.003C324.837 399.526 329.3 404.018 334.822 404.036H334.855C340.363 404.036 344.836 399.58 344.855 394.069L344.913 376.166C344.913 366.54 341.114 357.543 334.217 350.833C327.325 344.129 318.228 340.593 308.606 340.85C289.676 341.368 274.275 357.444 274.275 376.687V489.257C243.3 478.999 221.863 450.012 221.863 416.37V400.837C221.863 362.514 209.547 348.186 189.142 324.447C186.297 321.136 183.354 317.714 180.205 313.949C154.357 283.069 137.414 260.814 137.414 233.9C137.414 208.74 146.279 184.957 162.375 166.932C179.102 148.204 202.121 137.89 227.193 137.89C229.591 137.89 238.674 139.122 263.249 153.158L268.756 159.495C284.483 177.592 305.174 189.868 328.592 194.995C336.505 196.727 344.472 197.588 352.401 197.588C367.939 197.588 383.319 194.28 397.785 187.745C402.818 185.471 405.055 179.548 402.781 174.515C400.507 169.482 394.584 167.246 389.551 169.519C365.397 180.432 338.777 180.159 315.852 170.051C325.366 169.105 334.728 165.998 343.245 160.728C377.501 139.537 389.226 137.89 392.004 137.89C406.596 137.89 420.574 141.385 433.026 148.079C425.641 157.425 421.572 168.999 421.572 181.291C421.572 210.929 445.68 235.041 475.313 235.041C477.487 235.041 479.644 234.912 481.779 234.655C481.511 256.685 469.559 276.133 451.705 298.498C447.617 303.633 443.184 308.951 438.993 313.958C435.849 317.715 432.91 321.134 430.066 324.44C414.965 342.002 404.055 354.69 399.574 376.202C398.068 383.441 397.336 391.498 397.336 400.834V416.367C397.336 450.027 375.875 479.025 344.869 489.269L344.856 485.778C344.836 480.268 340.363 475.814 334.857 475.814H334.82C329.298 475.834 324.836 480.327 324.856 485.85L324.914 502.03C324.925 504.963 326.223 507.744 328.464 509.635C330.281 511.169 332.571 511.993 334.914 511.993C335.461 511.993 336.011 511.948 336.558 511.857C358.895 508.134 379.344 496.555 394.136 479.252C409.096 461.752 417.336 439.419 417.336 416.367V400.837C417.336 392.886 417.931 386.162 419.155 380.281C422.583 363.822 431.108 353.908 445.231 337.483C448.117 334.127 451.102 330.655 454.331 326.797C458.601 321.695 463.124 316.27 467.345 310.968C488.017 285.072 501.785 262.056 501.785 233.902C501.781 229.597 501.558 225.271 501.118 221.043ZM475.31 215.043C456.706 215.043 441.569 199.902 441.569 181.293C441.569 173.2 444.381 165.6 449.458 159.59C452.026 161.875 454.484 164.33 456.81 166.935C468.768 180.323 476.706 196.708 480.025 214.718C478.473 214.934 476.899 215.043 475.31 215.043Z" fill="#219BDA"/>
<path d="M224.847 171.297C191.117 171.297 163.676 198.738 163.676 232.468C163.676 266.198 191.117 293.639 224.847 293.639C258.577 293.639 286.018 266.198 286.018 232.468C286.018 198.738 258.577 171.297 224.847 171.297ZM224.847 273.64C202.145 273.64 183.676 255.171 183.676 232.469C183.676 209.767 202.145 191.298 224.847 191.298C247.549 191.298 266.018 209.767 266.018 232.469C266.019 255.17 247.549 273.64 224.847 273.64Z" fill="#219BDA"/>
</g>
<defs>
<clipPath id="clip0_7_533">
<rect width="512" height="512" fill="white"/>
</clipPath>
</defs>
</svg>
