<svg width="512" height="512" viewBox="0 0 512 512" fill="none" xmlns="http://www.w3.org/2000/svg">
<g clip-path="url(#clip0_7_600)">
<path d="M228.71 397.146C224.532 397.146 220.703 394.435 219.295 390.51C217.886 386.581 219.136 382.06 222.366 379.413C225.644 376.728 230.385 376.414 233.986 378.65C237.583 380.883 239.402 385.296 238.443 389.415C237.403 393.882 233.298 397.146 228.71 397.146Z" fill="#E68D3B"/>
<path d="M386.3 333.435C383.734 333.435 381.255 332.447 379.389 330.662L363.117 315.098C359.126 311.281 358.985 304.951 362.803 300.959C366.621 296.967 372.951 296.829 376.942 300.645L385.391 308.727L401.083 289.478C404.572 285.197 410.874 284.558 415.152 288.046C419.433 291.535 420.074 297.835 416.585 302.115L394.053 329.754C392.29 331.916 389.704 333.244 386.92 333.416C386.712 333.429 386.506 333.435 386.3 333.435Z" fill="#E68D3B"/>
<path d="M389.43 416.277C387.737 416.277 386.044 415.848 384.521 414.989C368.397 405.902 354.167 396.378 342.227 386.681C317.827 366.866 309.132 350.888 309.132 342.543V249.409C309.132 245.675 311.213 242.251 314.528 240.532L384.824 204.075C387.711 202.579 391.144 202.579 394.031 204.075L464.333 240.534C467.648 242.254 469.729 245.677 469.729 249.411V342.539C469.729 350.886 461.035 366.865 436.633 386.68C424.688 396.381 410.457 405.906 394.338 414.989C392.815 415.848 391.122 416.277 389.43 416.277ZM329.132 341.936C329.643 343.522 333.669 353.968 354.834 371.156C364.539 379.038 376.417 387.132 389.43 394.746C402.44 387.135 414.318 379.039 424.026 371.155C445.193 353.967 449.219 343.518 449.73 341.932V255.49L389.428 224.217L329.132 255.488V341.936Z" fill="#E68D3B"/>
<path d="M506.604 214.387L403.892 161.119C402.079 132.685 391.044 105.832 372.617 85.1771C351.033 60.9871 321.324 47.6641 288.962 47.6641C284.428 47.6641 270.631 47.6641 226.741 74.8491C211.529 84.2711 192.631 84.2711 177.419 74.8491C133.529 47.6641 119.732 47.6641 115.198 47.6641C82.835 47.6641 53.126 60.9871 31.543 85.1781C11.202 107.976 0 137.935 0 169.536C0 207.518 25.368 237.861 49.901 267.205C53.299 271.269 56.44 274.926 59.477 278.462C79.771 302.087 89.034 312.87 89.034 345.705V362.094C89.034 386.288 97.672 409.727 113.358 428.093C128.869 446.255 150.312 458.411 173.737 462.322C174.285 462.413 174.836 462.458 175.383 462.458C177.732 462.458 180.027 461.63 181.846 460.089C184.089 458.189 185.383 455.398 185.383 452.458V320.221C185.383 310.941 192.659 303.191 201.603 302.946C206.157 302.822 210.452 304.497 213.708 307.665C216.975 310.843 218.774 315.105 218.774 319.636L218.709 341.606C218.692 347.129 223.156 351.619 228.679 351.636H228.709C234.218 351.636 238.692 347.178 238.709 341.666L238.774 319.666C238.774 309.659 234.825 300.307 227.655 293.331C220.495 286.365 211.061 282.677 201.054 282.955C181.385 283.495 165.383 300.213 165.383 320.223V439.772C132.118 429.082 109.034 398.097 109.034 362.096V345.707C109.034 305.46 96.091 290.394 74.648 265.432C71.653 261.946 68.556 258.341 65.244 254.379C37.915 221.687 20 198.121 20 169.536C20 142.851 29.399 117.621 46.466 98.4911C64.203 78.6111 88.612 67.6631 115.197 67.6631C117.765 67.6631 127.476 68.9711 153.565 83.8981L159.43 90.6531C175.933 109.661 197.647 122.556 222.223 127.942C230.528 129.762 238.89 130.666 247.211 130.666C263.517 130.666 279.659 127.191 294.839 120.327C299.871 118.051 302.107 112.127 299.83 107.095C297.555 102.062 291.632 99.8271 286.599 102.103C260.308 113.993 231.259 113.37 206.524 101.785C217.194 101.066 227.74 97.7551 237.272 91.8511C273.506 69.4081 285.997 67.6631 288.961 67.6631C315.546 67.6631 339.955 78.6111 357.692 98.4911C371.924 114.443 380.901 134.868 383.424 156.731L272.257 214.384C268.942 216.103 266.861 219.527 266.861 223.261V342.09C266.861 360.706 276.476 378.27 288.981 393.239C279.811 415.491 261.327 432.453 238.733 439.764L238.709 432.235C238.691 426.723 234.218 422.267 228.709 422.267H228.676C223.153 422.285 218.69 426.777 218.708 432.299L218.773 452.489C218.783 455.424 220.081 458.206 222.323 460.098C224.14 461.632 226.429 462.456 228.773 462.456C229.32 462.456 229.871 462.411 230.419 462.319C262.135 457.024 289.231 436.973 303.795 408.793C307.744 412.483 311.724 415.911 315.576 419.039C329.363 430.235 345.576 441.109 363.765 451.359L384.517 463.053C386.04 463.912 387.733 464.341 389.426 464.341C391.118 464.341 392.812 463.912 394.335 463.053L415.086 451.36C433.277 441.11 449.491 430.235 463.276 419.039C485.506 400.993 512 372.991 512 342.086V223.264C512 219.529 509.919 216.106 506.604 214.387ZM492 342.086C492 360.058 477.322 381.874 450.671 403.515C437.758 414.003 422.483 424.239 405.271 433.937L389.429 442.863L373.586 433.936C356.376 424.238 341.101 414.002 328.187 403.515C301.538 381.873 286.862 360.058 286.862 342.09V229.34L389.429 176.148L492 229.342V342.086Z" fill="#17C8DA"/>
</g>
<defs>
<clipPath id="clip0_7_600">
<rect width="512" height="512" fill="white"/>
</clipPath>
</defs>
</svg>
