<svg width="512" height="512" viewBox="0 0 512 512" fill="none" xmlns="http://www.w3.org/2000/svg">
<g clip-path="url(#clip0_7_437)">
<path d="M263.149 472.922H248.851C243.328 472.922 238.851 468.444 238.851 462.922C238.851 457.4 243.328 452.922 248.851 452.922H263.149C268.672 452.922 273.149 457.4 273.149 462.922C273.149 468.444 268.672 472.922 263.149 472.922Z" fill="white"/>
<path d="M355.404 0H156.596C123.389 0 96.373 27.017 96.373 60.224V451.777C96.373 484.984 123.389 512.001 156.596 512.001H355.405C388.612 512.001 415.628 484.984 415.628 451.777V60.224C415.627 27.017 388.611 0 355.404 0ZM156.596 20H355.405C377.584 20 395.628 38.044 395.628 60.224V60.818H371.207C365.684 60.818 361.207 65.296 361.207 70.818C361.207 76.34 365.684 80.818 371.207 80.818H395.628V413.844H116.373V80.817H280.794C286.317 80.817 290.794 76.339 290.794 70.817C290.794 65.295 286.317 60.817 280.794 60.817H116.373V60.223C116.373 38.044 134.417 20 156.596 20ZM395.627 451.776C395.627 473.956 377.583 492 355.404 492H156.596C134.417 492 116.373 473.956 116.373 451.776V433.843H395.628L395.627 451.776Z" fill="white"/>
<path d="M326.18 80.8168C321.998 80.8168 318.184 78.1078 316.775 74.1818C315.385 70.3078 316.575 65.8618 319.711 63.1948C322.983 60.4138 327.809 60.0518 331.457 62.3218C334.954 64.4978 336.796 68.7238 335.99 72.7668C335.07 77.3838 330.891 80.8168 326.18 80.8168Z" fill="white"/>
<path d="M346.976 183.736C334.984 170.313 318.477 162.922 300.497 162.922C295.871 162.922 287.268 164.439 266.065 177.556C259.857 181.396 252.145 181.395 245.937 177.557C224.732 164.439 216.13 162.922 211.504 162.922C193.523 162.922 177.016 170.314 165.025 183.736C153.806 196.292 147.628 212.771 147.628 230.137C147.628 249.533 158.653 264.38 171.972 280.408L173.74 282.529C182.934 293.544 186.374 297.665 186.374 309.985V318.368C186.374 346.277 206.332 369.862 233.831 374.447C234.379 374.538 234.929 374.583 235.476 374.583C237.826 374.583 240.12 373.755 241.939 372.214C244.182 370.314 245.476 367.523 245.476 364.583V307.543C245.476 301.783 250.164 297.064 255.927 297.024C258.735 297.042 261.413 298.09 263.419 300.082C265.422 302.071 266.525 304.721 266.525 307.543V364.583C266.525 367.522 267.818 370.313 270.062 372.213C272.305 374.114 275.267 374.927 278.17 374.447C305.669 369.862 325.628 346.277 325.628 318.368V309.985C325.628 297.665 329.068 293.544 338.262 282.529L340.03 280.408C353.349 264.38 364.374 249.533 364.374 230.137C364.372 212.772 358.194 196.292 346.976 183.736ZM324.645 267.628L322.906 269.714C312.874 281.733 305.626 290.416 305.626 309.986V318.369C305.626 332.211 298.057 344.411 286.524 350.71V307.544C286.524 299.354 283.323 291.664 277.511 285.892C271.748 280.169 264.119 277.025 256.004 277.025C255.932 277.025 255.86 277.026 255.788 277.026C239.073 277.142 225.475 290.833 225.475 307.545V350.711C213.942 344.412 206.373 332.212 206.373 318.37V309.987C206.373 290.417 199.124 281.733 189.093 269.715L187.354 267.629C176.177 254.178 167.627 242.876 167.627 230.139C167.627 217.695 171.999 205.949 179.938 197.062C188.084 187.945 199.294 182.923 211.49 182.923C211.697 182.929 216.476 183.176 232.487 192.782L234.614 195.229C245.962 208.284 261.906 215.268 278.272 215.268C286.352 215.268 294.537 213.565 302.319 210.049C307.352 207.776 309.59 201.853 307.316 196.82C305.042 191.787 299.119 189.549 294.087 191.823C288.114 194.52 281.783 195.588 275.62 195.145C275.944 194.957 276.266 194.765 276.586 194.567C294.948 183.208 300.291 182.93 300.496 182.924C312.705 182.924 323.915 187.945 332.061 197.063C340 205.95 344.372 217.696 344.372 230.14C344.372 242.875 335.822 254.177 324.645 267.628Z" fill="white"/>
</g>
<defs>
<clipPath id="clip0_7_437">
<rect width="512" height="512" fill="white"/>
</clipPath>
</defs>
</svg>
