<svg width="512" height="512" viewBox="0 0 512 512" fill="none" xmlns="http://www.w3.org/2000/svg">
<g clip-path="url(#clip0_7_515)">
<path d="M367.737 377.606C363.679 377.606 359.933 375.057 358.446 371.283C356.918 367.403 357.996 362.842 361.142 360.089C364.328 357.3 369.069 356.838 372.734 358.952C376.4 361.067 378.384 365.407 377.547 369.566C376.617 374.181 372.446 377.606 367.737 377.606Z" fill="white"/>
<path d="M202.204 511.999C184.513 511.999 167.536 504.235 152.312 489.011L125.125 461.766C112.882 449.475 106.25 440.804 106.25 430.18C106.25 419.557 112.881 410.886 125.118 398.601L182.76 340.842C191.512 332.055 199.075 325.326 209.923 325.319H209.94C223.962 325.319 237.534 335.915 271.011 369.118L369.354 270.378C345.23 245.983 332.621 231.682 327.914 220.163C320.621 202.314 331.93 190.96 341.019 181.835L398.661 124.077C410.901 111.788 419.543 105.125 430.109 105.125C440.677 105.126 449.318 111.788 461.564 124.085L488.737 151.315C509.484 172.062 516.543 195.929 509.145 220.333C503.267 239.721 489.922 254.893 481.949 263.957C480.267 265.869 478.814 267.52 477.954 268.633C477.734 268.918 477.5 269.19 477.251 269.447L407.043 342.443C403.213 346.422 396.883 346.548 392.902 342.718C388.921 338.889 388.797 332.559 392.627 328.578L462.487 255.943C463.684 254.435 465.2 252.712 466.93 250.745C489.522 225.06 506.087 196.95 474.585 165.45L447.397 138.206C443.494 134.288 434.37 125.126 430.106 125.126C425.843 125.126 416.718 134.287 412.822 138.199L355.18 195.957C344.654 206.525 344.698 208.367 346.426 212.597C350.235 221.914 364.866 237.612 390.535 263.318C394.431 267.219 394.435 273.537 390.544 277.442L278.123 390.321C276.247 392.204 273.7 393.262 271.043 393.264C271.041 393.264 271.039 393.264 271.037 393.264C268.383 393.264 265.837 392.208 263.961 390.33C239.372 365.705 218.334 345.32 209.939 345.32C209.938 345.32 209.938 345.32 209.936 345.32C207.07 345.322 203.152 348.711 196.925 354.963L139.283 412.722C133.219 418.808 126.253 426.301 126.253 430.179C126.253 434.057 133.22 441.55 139.29 447.644L166.463 474.875C197.647 506.059 225.777 489.497 251.529 466.953C253.378 465.334 255 463.915 256.421 462.778L328.93 392.274C332.889 388.422 339.221 388.513 343.072 392.472C346.922 396.433 346.833 402.764 342.874 406.615L269.998 477.475C269.737 477.729 269.462 477.968 269.175 478.192C268.096 479.033 266.524 480.409 264.704 482.003C255.66 489.92 240.523 503.17 221.155 509.085C214.778 511.032 208.446 511.998 202.204 511.999Z" fill="white"/>
<path d="M237.478 80.7033C226.683 68.6164 211.824 61.9609 195.637 61.9609C191.06 61.9609 183.403 63.447 164.672 75.0369C159.589 78.1831 153.275 78.1821 148.192 75.0369C129.46 63.447 121.804 61.9609 117.226 61.9609C101.039 61.9609 86.1802 68.6164 75.3855 80.7033C65.3058 91.989 59.7554 106.795 59.7554 122.392C59.7554 139.882 69.5931 153.151 81.4789 167.459L83.041 169.333C91.1606 179.064 93.8958 182.342 93.8958 192.771V200.16C93.8958 225.342 111.899 246.622 136.704 250.759C139.606 251.24 142.57 250.425 144.812 248.526C147.056 246.626 148.35 243.835 148.35 240.895V190.62C148.35 186.193 151.951 182.565 156.376 182.535H156.434C158.581 182.535 160.601 183.367 162.128 184.884C163.668 186.412 164.516 188.45 164.516 190.62V240.895C164.516 243.834 165.809 246.625 168.053 248.526C169.872 250.067 172.167 250.895 174.516 250.895C175.063 250.895 175.614 250.85 176.162 250.759C200.966 246.622 218.97 225.342 218.97 200.16V192.772C218.97 182.342 221.706 179.063 229.826 169.331L231.385 167.46C243.27 153.151 253.109 139.884 253.109 122.393C253.108 106.794 247.558 91.989 237.478 80.7033ZM215.998 154.679L214.468 156.517C205.469 167.301 198.967 175.093 198.967 192.772V200.16C198.967 211.194 193.308 221 184.516 226.585V190.619C184.516 183.08 181.57 176.003 176.221 170.69C170.919 165.424 163.901 162.533 156.436 162.533H156.236C140.858 162.64 128.347 175.24 128.347 190.619V226.585C119.556 221 113.896 211.194 113.896 200.16V192.771C113.896 175.094 107.396 167.303 98.3981 156.52L96.865 154.679C87.1713 143.01 79.7568 133.222 79.7568 122.392C79.7568 111.716 83.502 101.643 90.3035 94.0272C97.252 86.2476 106.814 81.9633 117.158 81.9613C117.338 81.9733 121.49 82.3314 134.941 90.3869L136.69 92.4001C146.92 104.175 161.296 110.473 176.052 110.473C183.336 110.473 190.717 108.937 197.733 105.767C202.766 103.493 205.004 97.5694 202.729 92.5361C200.456 87.5027 194.532 85.2656 189.499 87.5397C185.741 89.2379 181.816 90.1759 177.907 90.3969C191.37 82.3324 195.52 81.9743 195.637 81.9643C206.05 81.9643 215.611 86.2486 222.56 94.0282C229.36 101.643 233.106 111.717 233.106 122.393C233.107 133.223 225.692 143.01 215.998 154.679Z" fill="white"/>
<path d="M156.432 312.862C70.1759 312.862 0.000976562 242.687 0.000976562 156.431C0.000976562 70.1749 70.1759 0 156.432 0C242.688 0 312.863 70.1749 312.863 156.431C312.863 195.17 298.767 231.975 273.051 260.696L281.71 294.727C282.558 298.059 281.634 301.592 279.265 304.084C276.895 306.575 273.414 307.678 270.041 306.996L223.765 297.667C202.679 307.751 180.044 312.862 156.432 312.862ZM156.432 20.0014C81.2037 20.0014 20.0024 81.2027 20.0024 156.431C20.0024 231.659 81.2047 292.861 156.432 292.861C178.061 292.861 198.741 287.951 217.894 278.267C219.897 277.255 222.184 276.945 224.383 277.388L258.405 284.246L252.326 260.352C251.474 257.001 252.412 253.449 254.807 250.956C279.347 225.425 292.862 191.853 292.862 156.429C292.862 81.2027 231.66 20.0014 156.432 20.0014Z" fill="white"/>
</g>
<defs>
<clipPath id="clip0_7_515">
<rect width="512" height="512" fill="white"/>
</clipPath>
</defs>
</svg>
